<svg id="dynamic-website-bg" xmlns="http://www.w3.org/2000/svg" xmlns:xlink="http://www.w3.org/1999/xlink" width="600" height="390" viewBox="0 0 600 390">
  <defs>
    <clipPath id="clip-path">
      <rect id="Rectangle_9199" data-name="Rectangle 9199" width="600" height="390" fill="none"/>
    </clipPath>
    <clipPath id="clip-path-2">
      <rect id="Rectangle_9198" data-name="Rectangle 9198" width="600" height="390.001" fill="none"/>
    </clipPath>
    <clipPath id="clip-path-3">
      <rect id="Rectangle_9194" data-name="Rectangle 9194" width="43.007" height="78.138" fill="none"/>
    </clipPath>
    <clipPath id="clip-path-4">
      <rect id="Rectangle_9195" data-name="Rectangle 9195" width="34.72" height="78.138" fill="none"/>
    </clipPath>
    <clipPath id="clip-path-5">
      <rect id="Rectangle_9196" data-name="Rectangle 9196" width="44.27" height="78.138" fill="none"/>
    </clipPath>
    <clipPath id="clip-path-6">
      <rect id="Rectangle_9197" data-name="Rectangle 9197" width="37.811" height="78.138" fill="none"/>
    </clipPath>
  </defs>
  <g id="Group_20636" data-name="Group 20636" clip-path="url(#clip-path)">
    <path id="Path_21347" data-name="Path 21347" d="M1659.546,23.66V22.146l8.576-4.732v2.313l-5.729,3.176,5.729,3.176v2.313Z" transform="translate(-1235.22 -12.875)" fill="#e5f0f8"/>
    <path id="Path_21348" data-name="Path 21348" d="M2313.072,483.8l5.729,3.175-5.729,3.176v2.313l8.576-4.732v-1.514l-8.576-4.732Z" transform="translate(-1721.647 -355.976)" fill="#e5f0f8"/>
    <rect id="Rectangle_9035" data-name="Rectangle 9035" width="34.105" height="3.572" transform="translate(436.083 8.242)" fill="#e5f0f8"/>
    <rect id="Rectangle_9036" data-name="Rectangle 9036" width="34.105" height="3.572" transform="translate(424.326 22.046)" fill="#e5f0f8"/>
    <rect id="Rectangle_9037" data-name="Rectangle 9037" width="34.105" height="3.572" transform="translate(431.591 31.662)" fill="#e5f0f8"/>
    <rect id="Rectangle_9038" data-name="Rectangle 9038" width="34.105" height="3.572" transform="translate(431.591 58.128)" fill="#e5f0f8"/>
    <rect id="Rectangle_9039" data-name="Rectangle 9039" width="34.105" height="3.572" transform="translate(431.591 66.315)" fill="#e5f0f8"/>
    <rect id="Rectangle_9040" data-name="Rectangle 9040" width="102.854" height="3.572" transform="translate(443.31 40.821)" fill="#e5f0f8"/>
    <rect id="Rectangle_9041" data-name="Rectangle 9041" width="137.405" height="3.572" transform="translate(443.31 75.014)" fill="#e5f0f8"/>
    <rect id="Rectangle_9042" data-name="Rectangle 9042" width="137.405" height="3.572" transform="translate(443.31 102.4)" fill="#e5f0f8"/>
    <rect id="Rectangle_9043" data-name="Rectangle 9043" width="131.64" height="3.572" transform="translate(456.234 129.209)" fill="#e5f0f8"/>
    <rect id="Rectangle_9044" data-name="Rectangle 9044" width="29.43" height="3.572" transform="translate(443.31 111.705)" fill="#e5f0f8"/>
    <rect id="Rectangle_9045" data-name="Rectangle 9045" width="29.43" height="3.572" transform="translate(443.31 120.556)" fill="#e5f0f8"/>
    <rect id="Rectangle_9046" data-name="Rectangle 9046" width="137.405" height="3.572" transform="translate(443.31 83.756)" fill="#e5f0f8"/>
    <rect id="Rectangle_9047" data-name="Rectangle 9047" width="74.342" height="3.572" transform="translate(443.31 92.498)" fill="#e5f0f8"/>
    <rect id="Rectangle_9048" data-name="Rectangle 9048" width="31.539" height="3.572" transform="translate(443.31 49.053)" fill="#e5f0f8"/>
    <g id="Group_20635" data-name="Group 20635" transform="translate(0 -0.001)">
      <g id="Group_20634" data-name="Group 20634" clip-path="url(#clip-path-2)">
        <path id="Path_21349" data-name="Path 21349" d="M74.317,383.609S-94.914-23.4,215.644,4.149c133.014,11.8,108.183,83.388,166.929,150.369,38.079,43.416,111.315,7.9,138.76,45.838s-4.807,146.116-16.121,183.253Z" transform="translate(-21.059 -2.078)" fill="#e5f0f8"/>
        <rect id="Rectangle_9049" data-name="Rectangle 9049" width="435.95" height="325.127" transform="translate(50.599 30.126)" fill="#bbdbf3"/>
        <rect id="Rectangle_9050" data-name="Rectangle 9050" width="427.86" height="316.88" transform="translate(54.644 34.249)" fill="#fff"/>
        <rect id="Rectangle_9051" data-name="Rectangle 9051" width="430.609" height="31.848" transform="translate(53.27 32.265)" fill="#bbdbf3"/>
        <line id="Line_507" data-name="Line 507" y1="17.18" x2="16.852" transform="translate(455.458 40.591)" fill="none" stroke="#fff" stroke-linecap="round" stroke-linejoin="round" stroke-width="10.569"/>
        <line id="Line_508" data-name="Line 508" x1="16.852" y1="17.18" transform="translate(455.458 40.591)" fill="none" stroke="#fff" stroke-linecap="round" stroke-linejoin="round" stroke-width="10.569"/>
        <rect id="Rectangle_9052" data-name="Rectangle 9052" width="5.284" height="287.016" transform="translate(127.265 64.113)" fill="#bbdbf3"/>
        <rect id="Rectangle_9053" data-name="Rectangle 9053" width="5.284" height="287.016" transform="translate(318.055 64.113)" fill="#bbdbf3"/>
        <path id="Path_21350" data-name="Path 21350" d="M545.295,287.264v-1.481l8.385-4.626v2.262l-5.6,3.1,5.6,3.1v2.262Z" transform="translate(-405.869 -207.869)" fill="#98eb98"/>
        <path id="Path_21351" data-name="Path 21351" d="M1184.234,1284.917v-2.261l5.6-3.1-5.6-3.1v-2.262l8.385,4.626v1.481Z" transform="translate(-881.439 -942.047)" fill="#98eb98"/>
        <rect id="Rectangle_9054" data-name="Rectangle 9054" width="33.344" height="3.492" transform="translate(150.92 76.909)" fill="#98eb98"/>
        <rect id="Rectangle_9055" data-name="Rectangle 9055" width="33.344" height="3.492" transform="translate(139.425 90.405)" fill="#98eb98"/>
        <rect id="Rectangle_9056" data-name="Rectangle 9056" width="33.344" height="3.492" transform="translate(146.528 99.806)" fill="#98eb98"/>
        <rect id="Rectangle_9057" data-name="Rectangle 9057" width="33.344" height="3.492" transform="translate(146.528 125.682)" fill="#98eb98"/>
        <rect id="Rectangle_9058" data-name="Rectangle 9058" width="33.344" height="3.492" transform="translate(146.528 133.686)" fill="#98eb98"/>
        <rect id="Rectangle_9059" data-name="Rectangle 9059" width="100.559" height="3.492" transform="translate(157.986 108.761)" fill="#98eb98"/>
        <rect id="Rectangle_9060" data-name="Rectangle 9060" width="134.338" height="3.492" transform="translate(157.986 142.191)" fill="#98eb98"/>
        <rect id="Rectangle_9061" data-name="Rectangle 9061" width="134.338" height="3.492" transform="translate(157.986 168.965)" fill="#98eb98"/>
        <rect id="Rectangle_9062" data-name="Rectangle 9062" width="128.702" height="3.492" transform="translate(170.62 195.176)" fill="#98eb98"/>
        <rect id="Rectangle_9063" data-name="Rectangle 9063" width="28.773" height="3.492" transform="translate(157.986 178.063)" fill="#98eb98"/>
        <rect id="Rectangle_9064" data-name="Rectangle 9064" width="28.773" height="3.492" transform="translate(157.986 186.717)" fill="#98eb98"/>
        <rect id="Rectangle_9065" data-name="Rectangle 9065" width="134.338" height="3.492" transform="translate(157.986 150.738)" fill="#98eb98"/>
        <rect id="Rectangle_9066" data-name="Rectangle 9066" width="72.683" height="3.492" transform="translate(157.986 159.285)" fill="#98eb98"/>
        <rect id="Rectangle_9067" data-name="Rectangle 9067" width="30.034" height="3.492" transform="translate(146.528 205.173)" fill="#98eb98"/>
        <rect id="Rectangle_9068" data-name="Rectangle 9068" width="30.034" height="3.492" transform="translate(146.528 213.178)" fill="#98eb98"/>
        <rect id="Rectangle_9069" data-name="Rectangle 9069" width="121.001" height="3.492" transform="translate(156.848 221.682)" fill="#98eb98"/>
        <rect id="Rectangle_9070" data-name="Rectangle 9070" width="121.001" height="3.492" transform="translate(156.848 248.456)" fill="#98eb98"/>
        <rect id="Rectangle_9071" data-name="Rectangle 9071" width="115.925" height="3.492" transform="translate(168.229 274.667)" fill="#98eb98"/>
        <rect id="Rectangle_9072" data-name="Rectangle 9072" width="25.917" height="3.492" transform="translate(156.848 257.554)" fill="#98eb98"/>
        <rect id="Rectangle_9073" data-name="Rectangle 9073" width="25.917" height="3.492" transform="translate(156.848 266.208)" fill="#98eb98"/>
        <rect id="Rectangle_9074" data-name="Rectangle 9074" width="121.001" height="3.492" transform="translate(156.848 230.229)" fill="#98eb98"/>
        <rect id="Rectangle_9075" data-name="Rectangle 9075" width="65.467" height="3.492" transform="translate(156.848 238.776)" fill="#98eb98"/>
        <rect id="Rectangle_9076" data-name="Rectangle 9076" width="30.034" height="3.492" transform="translate(168.298 283.377)" fill="#98eb98"/>
        <rect id="Rectangle_9077" data-name="Rectangle 9077" width="30.034" height="3.492" transform="translate(168.298 291.381)" fill="#98eb98"/>
        <rect id="Rectangle_9078" data-name="Rectangle 9078" width="121.001" height="3.492" transform="translate(178.618 299.885)" fill="#98eb98"/>
        <rect id="Rectangle_9079" data-name="Rectangle 9079" width="96.29" height="3.492" transform="translate(178.618 326.66)" fill="#98eb98"/>
        <rect id="Rectangle_9080" data-name="Rectangle 9080" width="120.578" height="3.492" transform="translate(178.618 335.757)" fill="#98eb98"/>
        <rect id="Rectangle_9081" data-name="Rectangle 9081" width="121.001" height="3.492" transform="translate(178.618 308.432)" fill="#98eb98"/>
        <rect id="Rectangle_9082" data-name="Rectangle 9082" width="65.467" height="3.492" transform="translate(178.618 316.979)" fill="#98eb98"/>
        <rect id="Rectangle_9083" data-name="Rectangle 9083" width="30.835" height="3.492" transform="translate(157.986 116.809)" fill="#98eb98"/>
        <path id="Path_21352" data-name="Path 21352" d="M1279.123,287.264v-1.481l7.409-4.626v2.262l-4.949,3.1,4.949,3.1v2.262Z" transform="translate(-952.066 -207.869)" fill="#e5f0f8"/>
        <path id="Path_21353" data-name="Path 21353" d="M1843.7,1284.917v-2.261l4.949-3.1-4.949-3.1v-2.262l7.409,4.626v1.481Z" transform="translate(-1372.286 -942.047)" fill="#e5f0f8"/>
        <rect id="Rectangle_9084" data-name="Rectangle 9084" width="29.463" height="3.492" transform="translate(337.213 76.909)" fill="#e5f0f8"/>
        <rect id="Rectangle_9085" data-name="Rectangle 9085" width="29.463" height="3.492" transform="translate(327.056 90.405)" fill="#e5f0f8"/>
        <rect id="Rectangle_9086" data-name="Rectangle 9086" width="29.463" height="3.492" transform="translate(333.333 99.806)" fill="#e5f0f8"/>
        <rect id="Rectangle_9087" data-name="Rectangle 9087" width="29.463" height="3.492" transform="translate(333.333 125.682)" fill="#e5f0f8"/>
        <rect id="Rectangle_9088" data-name="Rectangle 9088" width="29.463" height="3.492" transform="translate(333.333 133.686)" fill="#e5f0f8"/>
        <rect id="Rectangle_9089" data-name="Rectangle 9089" width="88.855" height="3.492" transform="translate(343.456 108.761)" fill="#e5f0f8"/>
        <rect id="Rectangle_9090" data-name="Rectangle 9090" width="118.703" height="3.492" transform="translate(343.456 142.191)" fill="#e5f0f8"/>
        <rect id="Rectangle_9091" data-name="Rectangle 9091" width="118.703" height="3.492" transform="translate(343.456 168.965)" fill="#e5f0f8"/>
        <rect id="Rectangle_9092" data-name="Rectangle 9092" width="113.723" height="3.492" transform="translate(354.621 195.176)" fill="#e5f0f8"/>
        <rect id="Rectangle_9093" data-name="Rectangle 9093" width="25.425" height="3.492" transform="translate(343.456 178.063)" fill="#e5f0f8"/>
        <rect id="Rectangle_9094" data-name="Rectangle 9094" width="25.425" height="3.492" transform="translate(343.456 186.717)" fill="#e5f0f8"/>
        <rect id="Rectangle_9095" data-name="Rectangle 9095" width="118.703" height="3.492" transform="translate(343.456 150.738)" fill="#e5f0f8"/>
        <rect id="Rectangle_9096" data-name="Rectangle 9096" width="64.223" height="3.492" transform="translate(343.456 159.285)" fill="#e5f0f8"/>
        <rect id="Rectangle_9097" data-name="Rectangle 9097" width="26.538" height="3.492" transform="translate(333.332 205.173)" fill="#e5f0f8"/>
        <rect id="Rectangle_9098" data-name="Rectangle 9098" width="26.538" height="3.492" transform="translate(333.332 213.178)" fill="#e5f0f8"/>
        <rect id="Rectangle_9099" data-name="Rectangle 9099" width="106.918" height="3.492" transform="translate(342.451 221.682)" fill="#e5f0f8"/>
        <rect id="Rectangle_9100" data-name="Rectangle 9100" width="106.918" height="3.492" transform="translate(342.451 248.456)" fill="#e5f0f8"/>
        <rect id="Rectangle_9101" data-name="Rectangle 9101" width="102.432" height="3.492" transform="translate(352.507 274.667)" fill="#e5f0f8"/>
        <rect id="Rectangle_9102" data-name="Rectangle 9102" width="22.9" height="3.492" transform="translate(342.451 257.554)" fill="#e5f0f8"/>
        <rect id="Rectangle_9103" data-name="Rectangle 9103" width="22.9" height="3.492" transform="translate(342.451 266.208)" fill="#e5f0f8"/>
        <rect id="Rectangle_9104" data-name="Rectangle 9104" width="106.918" height="3.492" transform="translate(342.451 230.229)" fill="#e5f0f8"/>
        <rect id="Rectangle_9105" data-name="Rectangle 9105" width="57.847" height="3.492" transform="translate(342.452 238.776)" fill="#e5f0f8"/>
        <rect id="Rectangle_9106" data-name="Rectangle 9106" width="26.538" height="3.492" transform="translate(352.568 283.377)" fill="#e5f0f8"/>
        <rect id="Rectangle_9107" data-name="Rectangle 9107" width="26.538" height="3.492" transform="translate(352.568 291.381)" fill="#e5f0f8"/>
        <rect id="Rectangle_9108" data-name="Rectangle 9108" width="106.918" height="3.492" transform="translate(361.687 299.885)" fill="#e5f0f8"/>
        <rect id="Rectangle_9109" data-name="Rectangle 9109" width="85.082" height="3.492" transform="translate(361.687 326.66)" fill="#e5f0f8"/>
        <rect id="Rectangle_9110" data-name="Rectangle 9110" width="106.545" height="3.492" transform="translate(361.687 335.757)" fill="#e5f0f8"/>
        <rect id="Rectangle_9111" data-name="Rectangle 9111" width="106.918" height="3.492" transform="translate(361.687 308.432)" fill="#e5f0f8"/>
        <rect id="Rectangle_9112" data-name="Rectangle 9112" width="57.847" height="3.492" transform="translate(361.687 316.979)" fill="#e5f0f8"/>
        <rect id="Rectangle_9113" data-name="Rectangle 9113" width="27.246" height="3.492" transform="translate(343.457 116.809)" fill="#e5f0f8"/>
        <rect id="Rectangle_9114" data-name="Rectangle 9114" width="56.356" height="3.492" transform="translate(61.81 76.909)" fill="#e5f0f8"/>
        <rect id="Rectangle_9115" data-name="Rectangle 9115" width="56.356" height="3.492" transform="translate(61.81 85.101)" fill="#e5f0f8"/>
        <rect id="Rectangle_9116" data-name="Rectangle 9116" width="56.356" height="3.492" transform="translate(61.81 93.292)" fill="#e5f0f8"/>
        <rect id="Rectangle_9117" data-name="Rectangle 9117" width="56.356" height="3.492" transform="translate(61.81 101.484)" fill="#e5f0f8"/>
        <rect id="Rectangle_9118" data-name="Rectangle 9118" width="56.356" height="3.492" transform="translate(61.81 109.676)" fill="#e5f0f8"/>
        <rect id="Rectangle_9119" data-name="Rectangle 9119" width="56.356" height="3.492" transform="translate(61.81 117.867)" fill="#e5f0f8"/>
        <rect id="Rectangle_9120" data-name="Rectangle 9120" width="56.356" height="3.492" transform="translate(61.81 126.059)" fill="#e5f0f8"/>
        <rect id="Rectangle_9121" data-name="Rectangle 9121" width="56.356" height="3.492" transform="translate(61.81 134.25)" fill="#e5f0f8"/>
        <rect id="Rectangle_9122" data-name="Rectangle 9122" width="56.356" height="3.492" transform="translate(61.81 142.442)" fill="#e5f0f8"/>
        <rect id="Rectangle_9123" data-name="Rectangle 9123" width="56.356" height="3.492" transform="translate(61.81 150.634)" fill="#e5f0f8"/>
        <rect id="Rectangle_9124" data-name="Rectangle 9124" width="56.356" height="3.492" transform="translate(61.81 158.825)" fill="#e5f0f8"/>
        <rect id="Rectangle_9125" data-name="Rectangle 9125" width="56.356" height="3.492" transform="translate(61.81 167.017)" fill="#e5f0f8"/>
        <rect id="Rectangle_9126" data-name="Rectangle 9126" width="56.356" height="3.492" transform="translate(61.81 175.208)" fill="#e5f0f8"/>
        <rect id="Rectangle_9127" data-name="Rectangle 9127" width="56.356" height="3.492" transform="translate(61.81 183.4)" fill="#e5f0f8"/>
        <rect id="Rectangle_9128" data-name="Rectangle 9128" width="56.356" height="3.492" transform="translate(61.81 191.592)" fill="#e5f0f8"/>
        <rect id="Rectangle_9129" data-name="Rectangle 9129" width="56.356" height="3.492" transform="translate(61.81 199.783)" fill="#e5f0f8"/>
        <rect id="Rectangle_9130" data-name="Rectangle 9130" width="56.356" height="3.492" transform="translate(61.81 207.975)" fill="#e5f0f8"/>
        <rect id="Rectangle_9131" data-name="Rectangle 9131" width="56.356" height="3.492" transform="translate(61.81 216.166)" fill="#e5f0f8"/>
        <rect id="Rectangle_9132" data-name="Rectangle 9132" width="56.356" height="3.492" transform="translate(61.81 224.358)" fill="#e5f0f8"/>
        <rect id="Rectangle_9133" data-name="Rectangle 9133" width="56.356" height="3.492" transform="translate(61.81 232.55)" fill="#e5f0f8"/>
        <rect id="Rectangle_9134" data-name="Rectangle 9134" width="56.356" height="3.492" transform="translate(61.81 240.741)" fill="#e5f0f8"/>
        <rect id="Rectangle_9135" data-name="Rectangle 9135" width="56.356" height="3.492" transform="translate(61.81 248.933)" fill="#e5f0f8"/>
        <rect id="Rectangle_9136" data-name="Rectangle 9136" width="56.356" height="3.492" transform="translate(61.81 257.124)" fill="#e5f0f8"/>
        <rect id="Rectangle_9137" data-name="Rectangle 9137" width="56.356" height="3.492" transform="translate(61.81 265.316)" fill="#e5f0f8"/>
        <rect id="Rectangle_9138" data-name="Rectangle 9138" width="56.356" height="3.492" transform="translate(61.81 273.507)" fill="#e5f0f8"/>
        <rect id="Rectangle_9139" data-name="Rectangle 9139" width="56.356" height="3.492" transform="translate(61.81 281.699)" fill="#e5f0f8"/>
        <rect id="Rectangle_9140" data-name="Rectangle 9140" width="56.356" height="3.492" transform="translate(61.81 289.891)" fill="#e5f0f8"/>
        <rect id="Rectangle_9141" data-name="Rectangle 9141" width="56.356" height="3.492" transform="translate(61.81 298.082)" fill="#e5f0f8"/>
        <rect id="Rectangle_9142" data-name="Rectangle 9142" width="56.356" height="3.492" transform="translate(61.81 306.274)" fill="#e5f0f8"/>
        <rect id="Rectangle_9143" data-name="Rectangle 9143" width="56.356" height="3.492" transform="translate(61.81 314.466)" fill="#e5f0f8"/>
        <rect id="Rectangle_9144" data-name="Rectangle 9144" width="56.356" height="3.492" transform="translate(61.81 322.657)" fill="#e5f0f8"/>
        <path id="Path_21354" data-name="Path 21354" d="M235.857,899.078c0,9.117,13.244,25.3,12.635,43.3s-3.806,30.339,4.871,30.8,47.266,0,47.266,0h17.125s3.273-17.5-7.916-18.778-23.376.376-25.46-6.634c-2.283-7.682-.8-21.649-.457-30.262s3.539-26.188-7.421-32.939-23.816-4.736-31.853-.931c-6.393,3.026-8.791,7.449-8.791,15.441" transform="translate(-175.551 -650.712)" fill="#f74242"/>
        <path id="Path_21355" data-name="Path 21355" d="M474.005,1441.917h0a1.239,1.239,0,0,1-1.227-1.251v-1.4a1.228,1.228,0,1,1,2.455,0v1.4a1.239,1.239,0,0,1-1.227,1.251" transform="translate(-351.894 -1063.175)" fill="#bbdbf3"/>
        <path id="Path_21356" data-name="Path 21356" d="M425.776,1416.593l13.245,5.585-13.245-2.325Z" transform="translate(-316.91 -1047.335)" fill="#586773"/>
        <rect id="Rectangle_9145" data-name="Rectangle 9145" width="3.364" height="90.304" transform="translate(159.127 288.855)" fill="#586773"/>
        <path id="Path_21357" data-name="Path 21357" d="M621.48,1373.215l10.9.127-2.219-16.69-12.732,4.484Z" transform="translate(-459.557 -1003.018)" fill="#a06753"/>
        <path id="Path_21358" data-name="Path 21358" d="M631.833,1428.739l5.142-.025.314-3.386,2.817,3.371,12.132-.059-9.138-8.319-10.9-.127Z" transform="translate(-470.281 -1049.997)" fill="#322a28"/>
        <line id="Line_509" data-name="Line 509" y1="0.039" x2="4.851" transform="translate(169.771 372.436)" fill="none" stroke="#d1ddff" stroke-miterlimit="10" stroke-width="2.666"/>
        <line id="Line_510" data-name="Line 510" y1="0.039" x2="4.851" transform="translate(170.952 374.135)" fill="none" stroke="#d1ddff" stroke-miterlimit="10" stroke-width="2.666"/>
        <path id="Path_21359" data-name="Path 21359" d="M556.949,1120.129a11.358,11.358,0,0,0-6.686,14.45l14.494,53.179,17.861-2.832-10.862-54.821h0a11.485,11.485,0,0,0-.628-3.16,11.027,11.027,0,0,0-14.174-6.817" transform="translate(-409.08 -827.656)" fill="#b86b76"/>
        <path id="Path_21360" data-name="Path 21360" d="M463.25,989.9h0a6.8,6.8,0,0,1-9.428-2.3L439,962.978a7.088,7.088,0,0,1,2.256-9.611,6.8,6.8,0,0,1,9.428,2.3l14.824,24.621a7.088,7.088,0,0,1-2.256,9.611" transform="translate(-326.002 -704.097)" fill="#f9e181"/>
        <path id="Path_21361" data-name="Path 21361" d="M351.127,1118.361a20.269,20.269,0,0,0-2.792,4.2c-.795,1.887,8.692.846,8.692.846l-1.034-9.066Z" transform="translate(-259.235 -823.871)" fill="#088cff"/>
        <path id="Path_21362" data-name="Path 21362" d="M440.326,1131.246h0a11.707,11.707,0,0,1-11.559,11.784H384.361a11.786,11.786,0,0,1,0-23.568h44.406a11.708,11.708,0,0,1,11.559,11.784" transform="translate(-277.481 -827.656)" fill="#b86b76"/>
        <path id="Path_21363" data-name="Path 21363" d="M450.941,864.324s2.934-6.088-.912-5.912.912,5.912.912,5.912" transform="translate(-333.844 -634.65)" fill="#322a28"/>
        <path id="Path_21364" data-name="Path 21364" d="M410.43,1138.168h0a11.656,11.656,0,0,1-12.6,10.616l-44.207-4.284a11.784,11.784,0,0,1,2.188-23.462l44.207,4.284a11.759,11.759,0,0,1,10.413,12.846" transform="translate(-255.416 -828.781)" fill="#e7888b"/>
        <path id="Path_21365" data-name="Path 21365" d="M362.846,941.363l-12,5.759s2.667,31.261,2.943,34.7a39.943,39.943,0,0,1-.758,8.644h28.747s-.345-16.867,1.586-21.576c1.308-3.19,2.206-5.131,1.448-8.785s-3.309-9.136-2.413-15.461l-7.376-3.022Z" transform="translate(-261.142 -695.981)" fill="#f9e181"/>
        <path id="Path_21366" data-name="Path 21366" d="M409.949,887.834v14.22a4.122,4.122,0,0,1-.034.452,4.357,4.357,0,0,1-4.67,4.1c-3.463-.042-5.883-2.634-6.913-4a8.062,8.062,0,0,1-.566-.82l1.745-13.956Z" transform="translate(-296.063 -656.405)" fill="#a06753"/>
        <path id="Path_21367" data-name="Path 21367" d="M474.742,1396.575l10.9.127,2.313-7.531-11.9-.923Z" transform="translate(-353.356 -1026.379)" fill="#a06753"/>
        <path id="Path_21368" data-name="Path 21368" d="M427.348,916.027l-6.2-8.072,6.2-1.218Z" transform="translate(-313.465 -670.381)" fill="#824c3a"/>
        <path id="Path_21369" data-name="Path 21369" d="M409.972,861.253c-2.469.82-5.893-.179-8.315-2.772s-7.864-12.3-.6-16.824,11.566,2.964,11.754,4.122c0,0,.072,4.084.116,6.962.017.732.027,1.383.035,1.873,0,.079.005.152,0,.223.035,2.254-.527,5.6-2.995,6.417" transform="translate(-295.801 -621.202)" fill="#a06753"/>
        <path id="Path_21370" data-name="Path 21370" d="M275.623,995.759h0a7.1,7.1,0,0,1-1.635-9.741l16.371-23.581a6.791,6.791,0,0,1,9.555-1.667,7.1,7.1,0,0,1,1.635,9.741l-16.371,23.581a6.791,6.791,0,0,1-9.555,1.667" transform="translate(-203 -709.385)" fill="#f9e181"/>
        <path id="Path_21371" data-name="Path 21371" d="M473.29,1428.739l5.142-.025.314-3.386,2.817,3.371,12.132-.059-9.139-8.319-10.9-.127Z" transform="translate(-352.276 -1049.997)" fill="#322a28"/>
        <path id="Path_21372" data-name="Path 21372" d="M409.6,842.716c.106,1.592-.776,3.825-5.477,3.649s-5.52,2.154-5.046,4.089a3.092,3.092,0,0,1-.733-2.432s-1.682,1.967-.992,3.98c0,0-1.2-1.931-1.938-.509s.243,2.547-.721,5.766c0,0,.473-3.19-1.172-4.887s-3.349-17.877,8.747-13.917c0,0,6.893-2.311,7.331,4.261" transform="translate(-292.04 -619.438)" fill="#322a28"/>
        <path id="Path_21373" data-name="Path 21373" d="M494.221,1139.825a11.1,11.1,0,0,0-12.838,9.164l-13.716,56.729,17.108,3.367,17.447-53.11h0a11.429,11.429,0,0,0,.992-3.062,11.28,11.28,0,0,0-8.989-13.088" transform="translate(-348.09 -842.583)" fill="#e7888b"/>
        <line id="Line_511" data-name="Line 511" y1="0.039" x2="4.851" transform="translate(129.233 372.436)" fill="none" stroke="#d1ddff" stroke-miterlimit="10" stroke-width="2.666"/>
        <line id="Line_512" data-name="Line 512" y1="0.039" x2="4.851" transform="translate(130.414 374.135)" fill="none" stroke="#d1ddff" stroke-miterlimit="10" stroke-width="2.666"/>
        <path id="Path_21374" data-name="Path 21374" d="M398.865,885.217c.429,1.329.418,2.183-.605,2.526a2.486,2.486,0,0,1-1.793-4.576c1.023-.343,1.97.721,2.4,2.05" transform="translate(-294.177 -652.907)" fill="#a06753"/>
        <path id="Path_21375" data-name="Path 21375" d="M399.291,888.482s1.641-.08,1.784,1.336a1.655,1.655,0,0,0-1.358-.354" transform="translate(-297.197 -656.883)" fill="none" stroke="#724638" stroke-linecap="round" stroke-linejoin="round" stroke-width="0.667"/>
        <path id="Path_21376" data-name="Path 21376" d="M433.156,881.084c0,.54.272.98.615.982s.624-.434.627-.975-.272-.98-.615-.982-.624.435-.627.975" transform="translate(-322.403 -650.694)" fill="#322a28"/>
        <path id="Path_21377" data-name="Path 21377" d="M450.881,879.581c0,.54.272.98.615.982s.624-.434.627-.975-.272-.98-.615-.982-.624.434-.627.975" transform="translate(-335.596 -649.583)" fill="#322a28"/>
        <path id="Path_21378" data-name="Path 21378" d="M437.366,903.516a1.193,1.193,0,0,0,1.525-.754l-2.265-.8a1.228,1.228,0,0,0,.74,1.555" transform="translate(-324.937 -666.85)" fill="#fff"/>
        <path id="Path_21379" data-name="Path 21379" d="M428.458,876.945s1.072-1.34,2.31-.846" transform="translate(-318.906 -647.648)" fill="none" stroke="#2c3447" stroke-miterlimit="10" stroke-width="0.99"/>
        <path id="Path_21380" data-name="Path 21380" d="M451.284,875.542a1.9,1.9,0,0,1,1.592.716" transform="translate(-335.896 -647.311)" fill="none" stroke="#2c3447" stroke-miterlimit="10" stroke-width="0.99"/>
        <path id="Path_21381" data-name="Path 21381" d="M444.615,882.606s.045,2.678,1.585,3.015a3.243,3.243,0,0,1-1.109.635" transform="translate(-330.932 -652.54)" fill="none" stroke="#2c3447" stroke-miterlimit="10" stroke-width="0.99"/>
        <path id="Path_21382" data-name="Path 21382" d="M426.526,890.979c-.129.515-.992.734-1.928.49s-1.59-.859-1.46-1.374.992-.734,1.928-.49,1.589.859,1.46,1.374" transform="translate(-314.934 -657.641)" fill="#a14c53"/>
        <path id="Path_21383" data-name="Path 21383" d="M454.86,890.127c-.562.022-1.014-.158-1.127-.507-.147-.455.327-1.024,1.092-1.366.016.732.027,1.383.035,1.873" transform="translate(-337.7 -656.716)" fill="#a14c53"/>
        <path id="Path_21384" data-name="Path 21384" d="M495.456,1008.635c-1.645-3.864-.254-8.236,3.091-9.716l30.5-8.84a22.366,22.366,0,0,0,2.846-1.8c1.912-1.488,7.574-4.9,8.051-4.069s-2.937,3.977-2.455,4.161,3.514-1.526,4.75-2.359,3.6-3.055,4.417-2.752.7,1.6.7,1.6.8-.96,1.293-.335-.4,2.431-.4,2.431.392-.581.766.246-1.859,3.048-1.859,3.048a.554.554,0,0,1,.775.415c.2.667-3.05,3.254-5.88,4.294-2.526.929-8.768,2.457-10.079,2.774l-27.441,15.238c-3.345,1.48-7.428-.47-9.073-4.333" transform="translate(-368.259 -726.933)" fill="#a06753"/>
        <line id="Line_513" data-name="Line 513" y1="8.682" x2="4.069" transform="translate(92.092 266.583)" fill="none" stroke="#2c3447" stroke-miterlimit="10" stroke-width="1.37"/>
        <path id="Path_21385" data-name="Path 21385" d="M402.358,899.667a1.009,1.009,0,1,1-1-1.036A1.019,1.019,0,0,1,402.358,899.667Z" transform="translate(-297.978 -664.388)" fill="none" stroke="#fff" stroke-miterlimit="10" stroke-width="1.129"/>
        <path id="Path_21386" data-name="Path 21386" d="M271.867,1052.339c-.166,4.208,2.679,7.774,6.323,7.923l31.573-2.981c1.074.137,6.944-.451,8.478-1.511a3.522,3.522,0,0,1,3.63-.081c1.489.79,2.777,1.333,3.262.855.623-.614-3.056-2.244-2.96-2.539s2.022.745,2.952,1.23c1.039.541,2.215.617,2.411.243.491-.936-1.644-2.248-1.644-2.248s2.944,1.65,3.284.808c.2-.488-1.162-1.544-2.277-2.148-.761-.412-3.584-1.475-3.449-1.859.087-.246,2.712,1.007,3.259,1.183,1.049.336,2.655.319,2.622-.128-.05-.7-5.946-3.677-9.471-2.918-3.4.731-8.707,1.086-10.043,1.273l-31.025-4.484c-3.644-.149-6.761,3.172-6.927,7.38" transform="translate(-202.349 -772.569)" fill="#a06753"/>
        <path id="Path_21387" data-name="Path 21387" d="M475.547,997.125s2.161-4.633,1.81-7.04-2.274-8.909-2.527-10.905" transform="translate(-353.421 -723.94)" fill="none" stroke="#2c3447" stroke-miterlimit="10" stroke-width="1.37"/>
        <path id="Path_21388" data-name="Path 21388" d="M384.821,807.632c.875,3.23-.288,6.375-2.6,7.026s-4.892-1.44-5.767-4.67.288-6.376,2.6-7.026,4.893,1.44,5.768,4.67" transform="translate(-279.983 -593.569)" fill="#322a28"/>
        <rect id="Rectangle_9146" data-name="Rectangle 9146" width="3.654" height="49.195" transform="translate(97.905 323.322)" fill="#586773"/>
        <rect id="Rectangle_9147" data-name="Rectangle 9147" width="18.267" height="3.259" transform="translate(90.599 369.258)" fill="#586773"/>
        <rect id="Rectangle_9148" data-name="Rectangle 9148" width="10.58" height="3.181" transform="translate(94.442 322.614)" fill="#586773"/>
        <path id="Path_21389" data-name="Path 21389" d="M298.958,1441.917h0a1.239,1.239,0,0,0,1.227-1.251v-1.4a1.228,1.228,0,1,0-2.455,0v1.4a1.239,1.239,0,0,0,1.227,1.251" transform="translate(-221.605 -1063.175)" fill="#586773"/>
        <path id="Path_21390" data-name="Path 21390" d="M315.776,1416.593l-13.245,5.585,13.245-2.325Z" transform="translate(-225.178 -1047.335)" fill="#586773"/>
        <rect id="Rectangle_9149" data-name="Rectangle 9149" width="3.364" height="90.304" transform="translate(62.803 288.855)" fill="#bbdbf3"/>
        <path id="Path_21391" data-name="Path 21391" d="M282.74,1157.162s42.529-5.482,51.186,2.431c7.618,6.964,1.6,17.037,1.6,17.037l-42.014.145Z" transform="translate(-210.447 -854.161)" fill="#f74242"/>
        <rect id="Rectangle_9150" data-name="Rectangle 9150" width="3.364" height="90.304" transform="translate(102.78 288.855)" fill="#bbdbf3"/>
        <rect id="Rectangle_9151" data-name="Rectangle 9151" width="3.364" height="90.304" transform="translate(199.104 288.855)" fill="#586773"/>
        <path id="Path_21392" data-name="Path 21392" d="M550.669,968.256h46.876a1.787,1.787,0,0,0,1.769-1.686l1.942-29.5a1.793,1.793,0,0,0-1.768-1.928H552.61a1.787,1.787,0,0,0-1.769,1.686l-1.942,29.5a1.793,1.793,0,0,0,1.768,1.928" transform="translate(-408.55 -691.383)" fill="#93acbf"/>
        <path id="Path_21393" data-name="Path 21393" d="M550.253,1052.078l1.311,1.287,2.274-3.566-3.269-.283Z" transform="translate(-409.56 -775.942)" fill="#93acbf"/>
        <path id="Path_21394" data-name="Path 21394" d="M742.693,936.649l1.158,1.1-2.433,1.714-1.6-1.743,1.816-1.068Z" transform="translate(-550.653 -692.496)" fill="#93acbf"/>
        <path id="Path_21395" data-name="Path 21395" d="M554.783,972.1H601.66a1.787,1.787,0,0,0,1.769-1.686l1.942-29.5a1.793,1.793,0,0,0-1.768-1.928H556.725a1.787,1.787,0,0,0-1.768,1.686l-1.942,29.5a1.792,1.792,0,0,0,1.768,1.928" transform="translate(-411.613 -694.228)" fill="#586773"/>
        <path id="Path_21396" data-name="Path 21396" d="M634.419,1016.9l1.4,13.887H647.1l-2.18-21.583h-9.808Z" transform="translate(-472.205 -746.137)" fill="#586773"/>
        <path id="Path_21397" data-name="Path 21397" d="M639.284,1030.781h11.282l-2.18-21.588H637.1Z" transform="translate(-474.205 -746.13)" fill="#93acbf"/>
        <path id="Path_21398" data-name="Path 21398" d="M606.518,1094.822h25v-1.536a1.262,1.262,0,0,0-1.25-1.274h-22.5a1.262,1.262,0,0,0-1.25,1.274Z" transform="translate(-451.439 -807.361)" fill="#586773"/>
        <path id="Path_21399" data-name="Path 21399" d="M623.817,1094.822h25v-1.536a1.262,1.262,0,0,0-1.25-1.274h-22.5a1.262,1.262,0,0,0-1.25,1.274Z" transform="translate(-464.314 -807.361)" fill="#93acbf"/>
        <rect id="Rectangle_9152" data-name="Rectangle 9152" width="118.48" height="3.712" transform="translate(88.49 287.461)" fill="#586773"/>
        <rect id="Rectangle_9153" data-name="Rectangle 9153" width="49.122" height="3.712" transform="translate(58.18 287.461)" fill="#bbdbf3"/>
        <path id="Path_21400" data-name="Path 21400" d="M484.592,1097.021h-34.8v-1.145a.882.882,0,0,1,.873-.89h33.055a.882.882,0,0,1,.873.89Z" transform="translate(-334.784 -809.56)" fill="#fff"/>
        <path id="Path_21401" data-name="Path 21401" d="M567.937,1464.333H94.519a5.251,5.251,0,0,1-5.2-5.3v-.623a5.251,5.251,0,0,1,5.2-5.3H567.937a5.251,5.251,0,0,1,5.2,5.3v.623a5.251,5.251,0,0,1-5.2,5.3" transform="translate(-66.482 -1074.333)" fill="#0775ef"/>
        <path id="Path_21402" data-name="Path 21402" d="M1350.433,1156.262v-90.134a2.28,2.28,0,0,1,2.258-2.3h132.157a2.28,2.28,0,0,1,2.258,2.3v90.134a2.28,2.28,0,0,1-2.258,2.3H1352.691a2.28,2.28,0,0,1-2.258-2.3" transform="translate(-1005.143 -786.523)" fill="#fff"/>
        <rect id="Rectangle_9154" data-name="Rectangle 9154" width="125.822" height="41.131" transform="translate(350.715 282.835)" fill="#93acbf"/>
        <path id="Path_21403" data-name="Path 21403" d="M1403.844,1140.427h-16.572a2.62,2.62,0,0,1-2.594-2.645v-18.009a2.619,2.619,0,0,1,2.594-2.644h16.572a2.62,2.62,0,0,1,2.594,2.644v18.009a2.62,2.62,0,0,1-2.594,2.645" transform="translate(-1030.632 -825.931)" fill="#bbdbf3"/>
        <rect id="Rectangle_9155" data-name="Rectangle 9155" width="4.918" height="2.887" transform="translate(357.027 294.794)" fill="#93acbf"/>
        <rect id="Rectangle_9156" data-name="Rectangle 9156" width="4.918" height="2.887" transform="translate(357.027 299.2)" fill="#93acbf"/>
        <rect id="Rectangle_9157" data-name="Rectangle 9157" width="4.918" height="2.887" transform="translate(357.027 303.607)" fill="#93acbf"/>
        <rect id="Rectangle_9158" data-name="Rectangle 9158" width="4.918" height="2.887" transform="translate(357.027 308.013)" fill="#93acbf"/>
        <rect id="Rectangle_9159" data-name="Rectangle 9159" width="9.588" height="4.406" transform="translate(363.882 296.237)" fill="#2ec6fc"/>
        <rect id="Rectangle_9160" data-name="Rectangle 9160" width="9.588" height="4.406" transform="translate(363.882 305.05)" fill="#2ec6fc"/>
        <path id="Path_21404" data-name="Path 21404" d="M1387.857,1217a1.59,1.59,0,1,1-1.59-1.621,1.606,1.606,0,0,1,1.59,1.621" transform="translate(-1030.632 -898.571)" fill="#f74242"/>
        <path id="Path_21405" data-name="Path 21405" d="M1412.081,1217a1.59,1.59,0,1,1-1.59-1.621,1.606,1.606,0,0,1,1.59,1.621" transform="translate(-1048.662 -898.571)" fill="#f9e181"/>
        <path id="Path_21406" data-name="Path 21406" d="M1436.3,1217a1.59,1.59,0,1,1-1.59-1.621,1.606,1.606,0,0,1,1.59,1.621" transform="translate(-1066.691 -898.571)" fill="#6adb6a"/>
        <path id="Path_21407" data-name="Path 21407" d="M1460.526,1217a1.59,1.59,0,1,1-1.59-1.621,1.606,1.606,0,0,1,1.59,1.621" transform="translate(-1084.72 -898.571)" fill="#bbdbf3"/>
        <path id="Path_21408" data-name="Path 21408" d="M1387.857,1101.008a1.59,1.59,0,1,1-1.59-1.621,1.605,1.605,0,0,1,1.59,1.621" transform="translate(-1030.632 -812.814)" fill="#f74242"/>
        <path id="Path_21409" data-name="Path 21409" d="M1412.081,1101.008a1.59,1.59,0,1,1-1.59-1.621,1.605,1.605,0,0,1,1.59,1.621" transform="translate(-1048.662 -812.814)" fill="#f9e181"/>
        <path id="Path_21410" data-name="Path 21410" d="M1436.3,1101.008a1.59,1.59,0,1,1-1.59-1.621,1.605,1.605,0,0,1,1.59,1.621" transform="translate(-1066.691 -812.814)" fill="#6adb6a"/>
        <path id="Path_21411" data-name="Path 21411" d="M1460.526,1101.008a1.59,1.59,0,1,1-1.59-1.621,1.605,1.605,0,0,1,1.59,1.621" transform="translate(-1084.72 -812.814)" fill="#bbdbf3"/>
        <path id="Path_21412" data-name="Path 21412" d="M1530.824,1140.427h-16.572a2.62,2.62,0,0,1-2.594-2.645v-18.009a2.62,2.62,0,0,1,2.594-2.644h16.572a2.619,2.619,0,0,1,2.594,2.644v18.009a2.619,2.619,0,0,1-2.594,2.645" transform="translate(-1125.145 -825.931)" fill="#bbdbf3"/>
        <rect id="Rectangle_9161" data-name="Rectangle 9161" width="4.918" height="2.887" transform="translate(389.494 294.794)" fill="#93acbf"/>
        <rect id="Rectangle_9162" data-name="Rectangle 9162" width="4.918" height="2.887" transform="translate(389.494 299.2)" fill="#93acbf"/>
        <rect id="Rectangle_9163" data-name="Rectangle 9163" width="4.918" height="2.887" transform="translate(389.494 303.607)" fill="#93acbf"/>
        <rect id="Rectangle_9164" data-name="Rectangle 9164" width="4.918" height="2.887" transform="translate(389.494 308.013)" fill="#93acbf"/>
        <rect id="Rectangle_9165" data-name="Rectangle 9165" width="9.588" height="4.406" transform="translate(396.349 296.237)" fill="#2ec6fc"/>
        <rect id="Rectangle_9166" data-name="Rectangle 9166" width="9.588" height="4.406" transform="translate(396.349 305.05)" fill="#2ec6fc"/>
        <path id="Path_21413" data-name="Path 21413" d="M1514.838,1217a1.59,1.59,0,1,1-1.59-1.621,1.606,1.606,0,0,1,1.59,1.621" transform="translate(-1125.145 -898.571)" fill="#f74242"/>
        <path id="Path_21414" data-name="Path 21414" d="M1539.059,1217a1.59,1.59,0,1,1-1.589-1.621,1.605,1.605,0,0,1,1.589,1.621" transform="translate(-1143.174 -898.571)" fill="#f9e181"/>
        <path id="Path_21415" data-name="Path 21415" d="M1563.282,1217a1.59,1.59,0,1,1-1.59-1.621,1.606,1.606,0,0,1,1.59,1.621" transform="translate(-1161.203 -898.571)" fill="#6adb6a"/>
        <path id="Path_21416" data-name="Path 21416" d="M1587.5,1217a1.59,1.59,0,1,1-1.59-1.621,1.606,1.606,0,0,1,1.59,1.621" transform="translate(-1179.232 -898.571)" fill="#bbdbf3"/>
        <path id="Path_21417" data-name="Path 21417" d="M1514.838,1101.008a1.59,1.59,0,1,1-1.59-1.621,1.605,1.605,0,0,1,1.59,1.621" transform="translate(-1125.145 -812.814)" fill="#f74242"/>
        <path id="Path_21418" data-name="Path 21418" d="M1539.059,1101.008a1.59,1.59,0,1,1-1.589-1.621,1.605,1.605,0,0,1,1.589,1.621" transform="translate(-1143.174 -812.814)" fill="#f9e181"/>
        <path id="Path_21419" data-name="Path 21419" d="M1563.282,1101.008a1.59,1.59,0,1,1-1.59-1.621,1.605,1.605,0,0,1,1.59,1.621" transform="translate(-1161.203 -812.814)" fill="#6adb6a"/>
        <path id="Path_21420" data-name="Path 21420" d="M1587.5,1101.008a1.59,1.59,0,1,1-1.59-1.621,1.605,1.605,0,0,1,1.59,1.621" transform="translate(-1179.232 -812.814)" fill="#bbdbf3"/>
        <path id="Path_21421" data-name="Path 21421" d="M1657.8,1140.427h-16.572a2.62,2.62,0,0,1-2.594-2.645v-18.009a2.62,2.62,0,0,1,2.594-2.644H1657.8a2.619,2.619,0,0,1,2.594,2.644v18.009a2.62,2.62,0,0,1-2.594,2.645" transform="translate(-1219.657 -825.931)" fill="#bbdbf3"/>
        <rect id="Rectangle_9167" data-name="Rectangle 9167" width="4.918" height="2.887" transform="translate(421.96 294.794)" fill="#93acbf"/>
        <rect id="Rectangle_9168" data-name="Rectangle 9168" width="4.918" height="2.887" transform="translate(421.96 299.2)" fill="#93acbf"/>
        <rect id="Rectangle_9169" data-name="Rectangle 9169" width="4.918" height="2.887" transform="translate(421.96 303.607)" fill="#93acbf"/>
        <rect id="Rectangle_9170" data-name="Rectangle 9170" width="4.918" height="2.887" transform="translate(421.96 308.013)" fill="#93acbf"/>
        <rect id="Rectangle_9171" data-name="Rectangle 9171" width="9.588" height="4.406" transform="translate(428.816 296.237)" fill="#2ec6fc"/>
        <rect id="Rectangle_9172" data-name="Rectangle 9172" width="9.588" height="4.406" transform="translate(428.816 305.05)" fill="#2ec6fc"/>
        <path id="Path_21422" data-name="Path 21422" d="M1641.817,1217a1.59,1.59,0,1,1-1.59-1.621,1.606,1.606,0,0,1,1.59,1.621" transform="translate(-1219.657 -898.571)" fill="#f74242"/>
        <path id="Path_21423" data-name="Path 21423" d="M1666.038,1217a1.59,1.59,0,1,1-1.59-1.621,1.606,1.606,0,0,1,1.59,1.621" transform="translate(-1237.686 -898.571)" fill="#f9e181"/>
        <path id="Path_21424" data-name="Path 21424" d="M1690.262,1217a1.59,1.59,0,1,1-1.59-1.621,1.606,1.606,0,0,1,1.59,1.621" transform="translate(-1255.716 -898.571)" fill="#6adb6a"/>
        <path id="Path_21425" data-name="Path 21425" d="M1714.484,1217a1.59,1.59,0,1,1-1.59-1.621,1.606,1.606,0,0,1,1.59,1.621" transform="translate(-1273.744 -898.571)" fill="#bbdbf3"/>
        <path id="Path_21426" data-name="Path 21426" d="M1641.817,1101.008a1.59,1.59,0,1,1-1.59-1.621,1.605,1.605,0,0,1,1.59,1.621" transform="translate(-1219.657 -812.814)" fill="#f74242"/>
        <path id="Path_21427" data-name="Path 21427" d="M1666.038,1101.008a1.59,1.59,0,1,1-1.59-1.621,1.605,1.605,0,0,1,1.59,1.621" transform="translate(-1237.686 -812.814)" fill="#f9e181"/>
        <path id="Path_21428" data-name="Path 21428" d="M1690.262,1101.008a1.59,1.59,0,1,1-1.59-1.621,1.605,1.605,0,0,1,1.59,1.621" transform="translate(-1255.716 -812.814)" fill="#6adb6a"/>
        <path id="Path_21429" data-name="Path 21429" d="M1714.484,1101.008a1.59,1.59,0,1,1-1.59-1.621,1.606,1.606,0,0,1,1.59,1.621" transform="translate(-1273.744 -812.814)" fill="#bbdbf3"/>
        <path id="Path_21430" data-name="Path 21430" d="M1784.782,1140.427H1768.21a2.62,2.62,0,0,1-2.594-2.645v-18.009a2.62,2.62,0,0,1,2.594-2.644h16.572a2.619,2.619,0,0,1,2.594,2.644v18.009a2.619,2.619,0,0,1-2.594,2.645" transform="translate(-1314.169 -825.931)" fill="#bbdbf3"/>
        <rect id="Rectangle_9173" data-name="Rectangle 9173" width="4.918" height="2.887" transform="translate(454.428 294.794)" fill="#93acbf"/>
        <rect id="Rectangle_9174" data-name="Rectangle 9174" width="4.918" height="2.887" transform="translate(454.428 299.2)" fill="#93acbf"/>
        <rect id="Rectangle_9175" data-name="Rectangle 9175" width="4.918" height="2.887" transform="translate(454.428 303.607)" fill="#93acbf"/>
        <rect id="Rectangle_9176" data-name="Rectangle 9176" width="4.918" height="2.887" transform="translate(454.428 308.013)" fill="#93acbf"/>
        <rect id="Rectangle_9177" data-name="Rectangle 9177" width="9.588" height="4.406" transform="translate(461.283 296.237)" fill="#2ec6fc"/>
        <rect id="Rectangle_9178" data-name="Rectangle 9178" width="9.588" height="4.406" transform="translate(461.283 305.05)" fill="#2ec6fc"/>
        <path id="Path_21431" data-name="Path 21431" d="M1768.8,1217a1.59,1.59,0,1,1-1.59-1.621,1.606,1.606,0,0,1,1.59,1.621" transform="translate(-1314.169 -898.571)" fill="#f74242"/>
        <path id="Path_21432" data-name="Path 21432" d="M1793.017,1217a1.59,1.59,0,1,1-1.59-1.621,1.606,1.606,0,0,1,1.59,1.621" transform="translate(-1332.198 -898.571)" fill="#f9e181"/>
        <path id="Path_21433" data-name="Path 21433" d="M1817.24,1217a1.59,1.59,0,1,1-1.59-1.621,1.606,1.606,0,0,1,1.59,1.621" transform="translate(-1350.227 -898.571)" fill="#6adb6a"/>
        <path id="Path_21434" data-name="Path 21434" d="M1841.463,1217a1.59,1.59,0,1,1-1.589-1.621,1.606,1.606,0,0,1,1.589,1.621" transform="translate(-1368.256 -898.571)" fill="#bbdbf3"/>
        <path id="Path_21435" data-name="Path 21435" d="M1768.8,1101.008a1.59,1.59,0,1,1-1.59-1.621,1.605,1.605,0,0,1,1.59,1.621" transform="translate(-1314.169 -812.814)" fill="#f74242"/>
        <path id="Path_21436" data-name="Path 21436" d="M1793.017,1101.008a1.59,1.59,0,1,1-1.59-1.621,1.605,1.605,0,0,1,1.59,1.621" transform="translate(-1332.198 -812.814)" fill="#f9e181"/>
        <path id="Path_21437" data-name="Path 21437" d="M1817.24,1101.008a1.59,1.59,0,1,1-1.59-1.621,1.605,1.605,0,0,1,1.59,1.621" transform="translate(-1350.227 -812.814)" fill="#6adb6a"/>
        <path id="Path_21438" data-name="Path 21438" d="M1841.463,1101.008a1.59,1.59,0,1,1-1.589-1.621,1.605,1.605,0,0,1,1.589,1.621" transform="translate(-1368.256 -812.814)" fill="#bbdbf3"/>
        <rect id="Rectangle_9179" data-name="Rectangle 9179" width="125.822" height="42.722" transform="translate(350.715 323.788)" fill="#586773"/>
        <rect id="Rectangle_9180" data-name="Rectangle 9180" width="35.646" height="3.646" transform="translate(354.046 328.385)" fill="#f74242"/>
        <rect id="Rectangle_9181" data-name="Rectangle 9181" width="35.646" height="3.646" transform="translate(354.046 334.361)" fill="#f9e181"/>
        <rect id="Rectangle_9182" data-name="Rectangle 9182" width="35.646" height="3.646" transform="translate(354.046 340.337)" fill="#f9ecb8"/>
        <rect id="Rectangle_9183" data-name="Rectangle 9183" width="35.646" height="3.646" transform="translate(354.046 346.314)" fill="#6adb6a"/>
        <rect id="Rectangle_9184" data-name="Rectangle 9184" width="35.646" height="3.646" transform="translate(354.046 352.29)" fill="#40a87b"/>
        <rect id="Rectangle_9185" data-name="Rectangle 9185" width="35.646" height="3.646" transform="translate(354.046 358.267)" fill="#2ec6fc"/>
        <path id="Path_21439" data-name="Path 21439" d="M1552.886,1261.411a1.59,1.59,0,1,1-1.59-1.621,1.606,1.606,0,0,1,1.59,1.621" transform="translate(-1153.466 -931.405)" fill="#f74242"/>
        <path id="Path_21440" data-name="Path 21440" d="M1577.109,1261.411a1.59,1.59,0,1,1-1.589-1.621,1.606,1.606,0,0,1,1.589,1.621" transform="translate(-1171.495 -931.405)" fill="#f74242"/>
        <path id="Path_21441" data-name="Path 21441" d="M1601.332,1261.411a1.59,1.59,0,1,1-1.59-1.621,1.606,1.606,0,0,1,1.59,1.621" transform="translate(-1189.524 -931.405)" fill="#f74242"/>
        <path id="Path_21442" data-name="Path 21442" d="M1625.555,1261.411a1.59,1.59,0,1,1-1.59-1.621,1.606,1.606,0,0,1,1.59,1.621" transform="translate(-1207.553 -931.405)" fill="#f9e181"/>
        <path id="Path_21443" data-name="Path 21443" d="M1649.427,1261.411a1.59,1.59,0,1,1-1.59-1.621,1.606,1.606,0,0,1,1.59,1.621" transform="translate(-1225.322 -931.405)" fill="#f9e181"/>
        <path id="Path_21444" data-name="Path 21444" d="M1673.649,1261.411a1.59,1.59,0,1,1-1.59-1.621,1.606,1.606,0,0,1,1.59,1.621" transform="translate(-1243.35 -931.405)" fill="#f9e181"/>
        <path id="Path_21445" data-name="Path 21445" d="M1697.871,1261.411a1.59,1.59,0,1,1-1.59-1.621,1.605,1.605,0,0,1,1.59,1.621" transform="translate(-1261.38 -931.405)" fill="#6adb6a"/>
        <path id="Path_21446" data-name="Path 21446" d="M1722.094,1261.411a1.59,1.59,0,1,1-1.59-1.621,1.606,1.606,0,0,1,1.59,1.621" transform="translate(-1279.408 -931.405)" fill="#6adb6a"/>
        <path id="Path_21447" data-name="Path 21447" d="M1552.886,1281.376a1.59,1.59,0,1,1-1.59-1.62,1.606,1.606,0,0,1,1.59,1.62" transform="translate(-1153.466 -946.167)" fill="#f74242"/>
        <path id="Path_21448" data-name="Path 21448" d="M1577.109,1281.376a1.59,1.59,0,1,1-1.589-1.62,1.606,1.606,0,0,1,1.589,1.62" transform="translate(-1171.495 -946.167)" fill="#f74242"/>
        <path id="Path_21449" data-name="Path 21449" d="M1601.332,1281.376a1.59,1.59,0,1,1-1.59-1.62,1.606,1.606,0,0,1,1.59,1.62" transform="translate(-1189.524 -946.167)" fill="#f74242"/>
        <path id="Path_21450" data-name="Path 21450" d="M1625.555,1281.376a1.59,1.59,0,1,1-1.59-1.62,1.606,1.606,0,0,1,1.59,1.62" transform="translate(-1207.553 -946.167)" fill="#f9e181"/>
        <path id="Path_21451" data-name="Path 21451" d="M1649.427,1281.376a1.59,1.59,0,1,1-1.59-1.62,1.606,1.606,0,0,1,1.59,1.62" transform="translate(-1225.322 -946.167)" fill="#f9e181"/>
        <path id="Path_21452" data-name="Path 21452" d="M1673.649,1281.376a1.59,1.59,0,1,1-1.59-1.62,1.606,1.606,0,0,1,1.59,1.62" transform="translate(-1243.35 -946.167)" fill="#f9e181"/>
        <path id="Path_21453" data-name="Path 21453" d="M1697.871,1281.376a1.59,1.59,0,1,1-1.59-1.62,1.605,1.605,0,0,1,1.59,1.62" transform="translate(-1261.38 -946.167)" fill="#6adb6a"/>
        <path id="Path_21454" data-name="Path 21454" d="M1722.094,1281.376a1.59,1.59,0,1,1-1.59-1.62,1.606,1.606,0,0,1,1.59,1.62" transform="translate(-1279.408 -946.167)" fill="#6adb6a"/>
        <path id="Path_21455" data-name="Path 21455" d="M1552.886,1309.523a1.59,1.59,0,1,1-1.59-1.621,1.605,1.605,0,0,1,1.59,1.621" transform="translate(-1153.466 -966.976)" fill="#f74242"/>
        <path id="Path_21456" data-name="Path 21456" d="M1577.109,1309.523a1.59,1.59,0,1,1-1.589-1.621,1.605,1.605,0,0,1,1.589,1.621" transform="translate(-1171.495 -966.976)" fill="#f74242"/>
        <path id="Path_21457" data-name="Path 21457" d="M1601.332,1309.523a1.59,1.59,0,1,1-1.59-1.621,1.605,1.605,0,0,1,1.59,1.621" transform="translate(-1189.524 -966.976)" fill="#f9e181"/>
        <path id="Path_21458" data-name="Path 21458" d="M1625.555,1309.523a1.59,1.59,0,1,1-1.59-1.621,1.605,1.605,0,0,1,1.59,1.621" transform="translate(-1207.553 -966.976)" fill="#f9e181"/>
        <path id="Path_21459" data-name="Path 21459" d="M1649.427,1309.523a1.59,1.59,0,1,1-1.59-1.621,1.605,1.605,0,0,1,1.59,1.621" transform="translate(-1225.322 -966.976)" fill="#6adb6a"/>
        <path id="Path_21460" data-name="Path 21460" d="M1673.649,1309.523a1.59,1.59,0,1,1-1.59-1.621,1.605,1.605,0,0,1,1.59,1.621" transform="translate(-1243.35 -966.976)" fill="#6adb6a"/>
        <path id="Path_21461" data-name="Path 21461" d="M1697.871,1309.523a1.59,1.59,0,1,1-1.59-1.621,1.605,1.605,0,0,1,1.59,1.621" transform="translate(-1261.38 -966.976)" fill="#6adb6a"/>
        <path id="Path_21462" data-name="Path 21462" d="M1722.094,1309.523a1.59,1.59,0,1,1-1.59-1.621,1.605,1.605,0,0,1,1.59,1.621" transform="translate(-1279.408 -966.976)" fill="#6adb6a"/>
        <path id="Path_21463" data-name="Path 21463" d="M1552.886,1329.489a1.59,1.59,0,1,1-1.59-1.621,1.606,1.606,0,0,1,1.59,1.621" transform="translate(-1153.466 -981.738)" fill="#f74242"/>
        <path id="Path_21464" data-name="Path 21464" d="M1577.109,1329.489a1.59,1.59,0,1,1-1.589-1.621,1.605,1.605,0,0,1,1.589,1.621" transform="translate(-1171.495 -981.738)" fill="#f9e181"/>
        <path id="Path_21465" data-name="Path 21465" d="M1601.332,1329.489a1.59,1.59,0,1,1-1.59-1.621,1.606,1.606,0,0,1,1.59,1.621" transform="translate(-1189.524 -981.738)" fill="#f9e181"/>
        <path id="Path_21466" data-name="Path 21466" d="M1625.555,1329.489a1.59,1.59,0,1,1-1.59-1.621,1.606,1.606,0,0,1,1.59,1.621" transform="translate(-1207.553 -981.738)" fill="#f9e181"/>
        <path id="Path_21467" data-name="Path 21467" d="M1649.427,1329.489a1.59,1.59,0,1,1-1.59-1.621,1.606,1.606,0,0,1,1.59,1.621" transform="translate(-1225.322 -981.738)" fill="#f9e181"/>
        <path id="Path_21468" data-name="Path 21468" d="M1673.649,1329.489a1.59,1.59,0,1,1-1.59-1.621,1.606,1.606,0,0,1,1.59,1.621" transform="translate(-1243.35 -981.738)" fill="#f9e181"/>
        <path id="Path_21469" data-name="Path 21469" d="M1697.871,1329.489a1.59,1.59,0,1,1-1.59-1.621,1.605,1.605,0,0,1,1.59,1.621" transform="translate(-1261.38 -981.738)" fill="#6adb6a"/>
        <path id="Path_21470" data-name="Path 21470" d="M1722.094,1329.489a1.59,1.59,0,1,1-1.59-1.621,1.606,1.606,0,0,1,1.59,1.621" transform="translate(-1279.408 -981.738)" fill="#6adb6a"/>
        <path id="Path_21471" data-name="Path 21471" d="M1552.886,1357.635a1.59,1.59,0,1,1-1.59-1.62,1.605,1.605,0,0,1,1.59,1.62" transform="translate(-1153.466 -1002.548)" fill="#6adb6a"/>
        <path id="Path_21472" data-name="Path 21472" d="M1577.109,1357.635a1.59,1.59,0,1,1-1.589-1.62,1.605,1.605,0,0,1,1.589,1.62" transform="translate(-1171.495 -1002.548)" fill="#6adb6a"/>
        <path id="Path_21473" data-name="Path 21473" d="M1601.332,1357.635a1.59,1.59,0,1,1-1.59-1.62,1.605,1.605,0,0,1,1.59,1.62" transform="translate(-1189.524 -1002.548)" fill="#f9e181"/>
        <path id="Path_21474" data-name="Path 21474" d="M1625.555,1357.635a1.59,1.59,0,1,1-1.59-1.62,1.605,1.605,0,0,1,1.59,1.62" transform="translate(-1207.553 -1002.548)" fill="#f9e181"/>
        <path id="Path_21475" data-name="Path 21475" d="M1649.427,1357.635a1.59,1.59,0,1,1-1.59-1.62,1.605,1.605,0,0,1,1.59,1.62" transform="translate(-1225.322 -1002.548)" fill="#f9e181"/>
        <path id="Path_21476" data-name="Path 21476" d="M1673.649,1357.635a1.59,1.59,0,1,1-1.59-1.62,1.605,1.605,0,0,1,1.59,1.62" transform="translate(-1243.35 -1002.548)" fill="#bbdbf3"/>
        <path id="Path_21477" data-name="Path 21477" d="M1697.871,1357.635a1.59,1.59,0,1,1-1.59-1.62,1.605,1.605,0,0,1,1.59,1.62" transform="translate(-1261.38 -1002.548)" fill="#bbdbf3"/>
        <path id="Path_21478" data-name="Path 21478" d="M1722.094,1357.635a1.59,1.59,0,1,1-1.59-1.62,1.605,1.605,0,0,1,1.59,1.62" transform="translate(-1279.408 -1002.548)" fill="#bbdbf3"/>
        <path id="Path_21479" data-name="Path 21479" d="M1552.886,1377.6a1.59,1.59,0,1,1-1.59-1.621,1.605,1.605,0,0,1,1.59,1.621" transform="translate(-1153.466 -1017.308)" fill="#6adb6a"/>
        <path id="Path_21480" data-name="Path 21480" d="M1577.109,1377.6a1.59,1.59,0,1,1-1.589-1.621,1.605,1.605,0,0,1,1.589,1.621" transform="translate(-1171.495 -1017.308)" fill="#6adb6a"/>
        <path id="Path_21481" data-name="Path 21481" d="M1601.332,1377.6a1.59,1.59,0,1,1-1.59-1.621,1.605,1.605,0,0,1,1.59,1.621" transform="translate(-1189.524 -1017.308)" fill="#f9e181"/>
        <path id="Path_21482" data-name="Path 21482" d="M1625.555,1377.6a1.59,1.59,0,1,1-1.59-1.621,1.605,1.605,0,0,1,1.59,1.621" transform="translate(-1207.553 -1017.308)" fill="#f9e181"/>
        <path id="Path_21483" data-name="Path 21483" d="M1649.427,1377.6a1.59,1.59,0,1,1-1.59-1.621,1.605,1.605,0,0,1,1.59,1.621" transform="translate(-1225.322 -1017.308)" fill="#bbdbf3"/>
        <path id="Path_21484" data-name="Path 21484" d="M1673.649,1377.6a1.59,1.59,0,1,1-1.59-1.621,1.605,1.605,0,0,1,1.59,1.621" transform="translate(-1243.35 -1017.308)" fill="#bbdbf3"/>
        <path id="Path_21485" data-name="Path 21485" d="M1697.871,1377.6a1.59,1.59,0,1,1-1.59-1.621,1.605,1.605,0,0,1,1.59,1.621" transform="translate(-1261.38 -1017.308)" fill="#bbdbf3"/>
        <path id="Path_21486" data-name="Path 21486" d="M1722.094,1377.6a1.59,1.59,0,1,1-1.59-1.621,1.605,1.605,0,0,1,1.59,1.621" transform="translate(-1279.408 -1017.308)" fill="#bbdbf3"/>
        <path id="Path_21487" data-name="Path 21487" d="M1784.782,1300.629H1768.21a2.62,2.62,0,0,1-2.594-2.644v-18.009a2.62,2.62,0,0,1,2.594-2.645h16.572a2.619,2.619,0,0,1,2.594,2.645v18.009a2.62,2.62,0,0,1-2.594,2.644" transform="translate(-1314.169 -944.374)" fill="#bbdbf3"/>
        <rect id="Rectangle_9186" data-name="Rectangle 9186" width="4.918" height="2.887" transform="translate(454.428 336.553)" fill="#89a5c7"/>
        <rect id="Rectangle_9187" data-name="Rectangle 9187" width="4.918" height="2.887" transform="translate(454.428 340.959)" fill="#89a5c7"/>
        <rect id="Rectangle_9188" data-name="Rectangle 9188" width="4.918" height="2.887" transform="translate(454.428 345.366)" fill="#89a5c7"/>
        <rect id="Rectangle_9189" data-name="Rectangle 9189" width="4.918" height="2.887" transform="translate(454.428 349.772)" fill="#89a5c7"/>
        <rect id="Rectangle_9190" data-name="Rectangle 9190" width="9.588" height="4.406" transform="translate(461.283 337.996)" fill="#2ec6fc"/>
        <rect id="Rectangle_9191" data-name="Rectangle 9191" width="9.588" height="4.406" transform="translate(461.283 346.809)" fill="#2ec6fc"/>
        <path id="Path_21488" data-name="Path 21488" d="M1768.8,1377.2a1.59,1.59,0,1,1-1.59-1.621,1.606,1.606,0,0,1,1.59,1.621" transform="translate(-1314.169 -1017.013)" fill="#f74242"/>
        <path id="Path_21489" data-name="Path 21489" d="M1793.017,1377.2a1.59,1.59,0,1,1-1.59-1.621,1.605,1.605,0,0,1,1.59,1.621" transform="translate(-1332.198 -1017.013)" fill="#f9e181"/>
        <path id="Path_21490" data-name="Path 21490" d="M1817.24,1377.2a1.59,1.59,0,1,1-1.59-1.621,1.606,1.606,0,0,1,1.59,1.621" transform="translate(-1350.227 -1017.013)" fill="#6adb6a"/>
        <path id="Path_21491" data-name="Path 21491" d="M1841.463,1377.2a1.59,1.59,0,1,1-1.589-1.621,1.605,1.605,0,0,1,1.589,1.621" transform="translate(-1368.256 -1017.013)" fill="#bbdbf3"/>
        <path id="Path_21492" data-name="Path 21492" d="M1768.8,1261.21a1.59,1.59,0,1,1-1.59-1.621,1.605,1.605,0,0,1,1.59,1.621" transform="translate(-1314.169 -931.257)" fill="#f74242"/>
        <path id="Path_21493" data-name="Path 21493" d="M1793.017,1261.21a1.59,1.59,0,1,1-1.59-1.621,1.605,1.605,0,0,1,1.59,1.621" transform="translate(-1332.198 -931.257)" fill="#f9e181"/>
        <path id="Path_21494" data-name="Path 21494" d="M1817.24,1261.21a1.59,1.59,0,1,1-1.59-1.621,1.605,1.605,0,0,1,1.59,1.621" transform="translate(-1350.227 -931.257)" fill="#6adb6a"/>
        <path id="Path_21495" data-name="Path 21495" d="M1841.463,1261.21a1.59,1.59,0,1,1-1.589-1.621,1.605,1.605,0,0,1,1.589,1.621" transform="translate(-1368.256 -931.257)" fill="#bbdbf3"/>
        <rect id="Rectangle_9192" data-name="Rectangle 9192" width="12.719" height="6.736" transform="translate(352.206 372.041)" fill="#fff"/>
        <rect id="Rectangle_9193" data-name="Rectangle 9193" width="12.719" height="6.736" transform="translate(462.327 372.041)" fill="#fff"/>
        <g id="Group_20624" data-name="Group 20624" transform="translate(354.153 285.604)" opacity="0.4">
          <g id="Group_20623" data-name="Group 20623">
            <g id="Group_20622" data-name="Group 20622" clip-path="url(#clip-path-3)">
              <path id="Path_21496" data-name="Path 21496" d="M1428.1,1095.669l-26.451,78.138H1385.1l26.451-78.138Z" transform="translate(-1385.096 -1095.669)" fill="#fff"/>
            </g>
          </g>
        </g>
        <g id="Group_20627" data-name="Group 20627" transform="translate(375.866 285.604)" opacity="0.4">
          <g id="Group_20626" data-name="Group 20626">
            <g id="Group_20625" data-name="Group 20625" clip-path="url(#clip-path-4)">
              <path id="Path_21497" data-name="Path 21497" d="M1504.74,1095.669l-26.442,78.138h-8.278l26.451-78.138Z" transform="translate(-1470.02 -1095.669)" fill="#fff"/>
            </g>
          </g>
        </g>
        <g id="Group_20630" data-name="Group 20630" transform="translate(429.553 285.604)" opacity="0.4">
          <g id="Group_20629" data-name="Group 20629">
            <g id="Group_20628" data-name="Group 20628" clip-path="url(#clip-path-5)">
              <path id="Path_21498" data-name="Path 21498" d="M1724.262,1095.669v14.478l-21.552,63.659h-22.719l26.451-78.138Z" transform="translate(-1679.991 -1095.669)" fill="#fff"/>
            </g>
          </g>
        </g>
        <g id="Group_20633" data-name="Group 20633" transform="translate(411.926 285.604)" opacity="0.4">
          <g id="Group_20632" data-name="Group 20632">
            <g id="Group_20631" data-name="Group 20631" clip-path="url(#clip-path-6)">
              <path id="Path_21499" data-name="Path 21499" d="M1648.859,1095.669l-26.451,78.138h-11.36l26.452-78.138Z" transform="translate(-1611.048 -1095.669)" fill="#fff"/>
            </g>
          </g>
        </g>
        <path id="Path_21500" data-name="Path 21500" d="M1586.12,382.2l13.726-.238-.719-14.693-.343-7.026-.019-.35-10.74-4.6-.35,4.966-.259,3.619Z" transform="translate(-1180.568 -262.679)" fill="#fdae97"/>
        <path id="Path_21501" data-name="Path 21501" d="M1616.108,618.526l5.772,48.71a11.39,11.39,0,0,1-.071,3.8,11.017,11.017,0,0,1-12.9,8.872c-5.966-1.182-8.249-5.878-9.32-12.862-2.057-13.406-9.241-53.628-9.241-53.628Z" transform="translate(-1183.713 -453.522)" fill="#088cfc"/>
        <path id="Path_21502" data-name="Path 21502" d="M1529.551,623.6l21.2,1.45L1550.648,649l-2.516,3.794-2.333,23.086-21.462-1.749Z" transform="translate(-1134.582 -461.048)" fill="#088cfc"/>
        <path id="Path_21503" data-name="Path 21503" d="M1677.959,470.774l-.072.049a6.847,6.847,0,0,1-9.578-1.962l-17.149-26.274a7.147,7.147,0,0,1,1.924-9.764l.072-.049a6.847,6.847,0,0,1,9.577,1.962l17.148,26.273a7.148,7.148,0,0,1-1.924,9.764" transform="translate(-1228.123 -319.098)" fill="#f74242"/>
        <path id="Path_21504" data-name="Path 21504" d="M1395.573,441.65l7.282,7.265,7.357-4.566-4.733-7.513-9.591.316Z" transform="translate(-1038.742 -322.967)" fill="#e89780"/>
        <path id="Path_21505" data-name="Path 21505" d="M1435.257,484.152c-3.427,2.032-7.692,1.167-9.442-1.921l-8.661-16.136-3.055-5.72-3.2-5.954,5.317-3.746,3.775-2.658.365-.262,3.88,5.869L1427.8,459l10.485,15.83c1.75,3.089.4,7.289-3.03,9.321" transform="translate(-1050.151 -331.04)" fill="#f74242"/>
        <path id="Path_21506" data-name="Path 21506" d="M1589.476,420.92c-5.036.113-7.181-2.439-7.828-3.441l1.883-.867,12.454-.639,1.5.488c-.632,1.2-2.86,4.344-8.005,4.459" transform="translate(-1177.24 -307.542)" fill="#fdae97"/>
        <path id="Path_21507" data-name="Path 21507" d="M1539.254,453.012l-.3,21h38.769l-.459-52.935-13.3-4.9c-.149.279-.31.57-.509.874l-.05.063c-.721.937-2.1,1.824-5.963,1.912-3.217.076-4.795-.38-5.689-.975l-.012-.013a3.438,3.438,0,0,1-.994-1.077l-12.559,2.824.845,26.721Z" transform="translate(-1144.891 -307.69)" fill="#f74242"/>
        <path id="Path_21508" data-name="Path 21508" d="M1653.668,840.145l-19.944-.014-6.011-47.313a11.182,11.182,0,0,1,9.8-12.336,11.143,11.143,0,0,1,12.137,11.575l3.472,41.528Z" transform="translate(-1211.482 -576.991)" fill="#088cfc"/>
        <path id="Path_21509" data-name="Path 21509" d="M1467.848,470.351h0a6.972,6.972,0,0,0,9.436-3.124l14.081-28.162a7.24,7.24,0,0,0-3.064-9.619,6.972,6.972,0,0,0-9.436,3.124l-14.08,28.162a7.24,7.24,0,0,0,3.064,9.619" transform="translate(-1089.69 -316.93)" fill="#f74242"/>
        <path id="Path_21510" data-name="Path 21510" d="M1591.238,420.705l5.689,9.169,5.962-10.106c-.72.937-2.1,1.824-5.962,1.912-3.217.076-4.795-.38-5.689-.975" transform="translate(-1184.378 -310.348)" fill="#d6eaff"/>
        <path id="Path_21511" data-name="Path 21511" d="M1371.776,384.458c-2.953-1.731-9.88-4.868-13.583-6.719-5.366-2.682-8.591-13.007.4-21.116,7.3-6.582,18.645,2.506,22.81,5.6a.916.916,0,0,0,1.442-.891,21.433,21.433,0,0,0-5.8-11.233c-7.562-8.106-14.473-9.614-19.859-8.944a15.892,15.892,0,0,1-3.471.018,22.237,22.237,0,0,1-12.2-5.335l-82.085-69.856c-10.992-10.382-5.021-20.548-14.18-29.885-6.8-6.928-19.607-6.431-24.992-5.912a.862.862,0,0,0-.348,1.6c2.953,1.731,8.064,3.546,11.766,5.4,5.366,2.682,7.822,14.408-1.171,22.517-7.3,6.582-17.092-1.4-21.257-4.49a.916.916,0,0,0-1.442.891c.319,2.342,1.594,6.313,5.722,10.737,7.563,8.106,15.584,8.923,20.97,8.252a15.4,15.4,0,0,1,6.872,1.03,25.325,25.325,0,0,1,7.814,4.615l84.667,72.053a15.039,15.039,0,0,1,4.14,5.631c3.152,7.529.534,14.686,7.279,21.561,6.8,6.928,20.772,6.6,26.157,6.08a.862.862,0,0,0,.348-1.6" transform="translate(-898.979 -169.981)" fill="#93acbf"/>
        <path id="Path_21512" data-name="Path 21512" d="M1454.172,451.57l-91.41-77.792a3.208,3.208,0,0,1-.393-4.446,3.064,3.064,0,0,1,4.361-.4l91.41,77.792a3.209,3.209,0,0,1,.393,4.446,3.064,3.064,0,0,1-4.361.4" transform="translate(-1013.494 -272.224)" fill="#586773"/>
        <path id="Path_21513" data-name="Path 21513" d="M1561.907,569.82c.082.616,3.7,1.408,6.38,1.116,2.274-.244,7.457-1.382,8.982-1.729l-.572-7.393a18.341,18.341,0,0,1-2.782-.312c-2.112-.431-7.984-.938-8.049-.068s3.891,2.035,3.571,2.375-3.42.168-4.732-.014-4.077-1.024-4.615-.457.05,1.568.05,1.568-1.018-.449-1.177.25,1.254,1.8,1.254,1.8-.533-.313-.52.5,2.669,1.722,2.669,1.722a.5.5,0,0,0-.46.641" transform="translate(-1160.346 -414.735)" fill="#fdae97"/>
        <path id="Path_21514" data-name="Path 21514" d="M1536.63,786.276l-5.121,49.176h-19.593l3.142-49.445a13.664,13.664,0,0,1,.162-1.642c.537-6.176,5.35-10.788,11.408-10.249a11.171,11.171,0,0,1,10,12.16" transform="translate(-1125.337 -572.298)" fill="#088cfc"/>
        <path id="Path_21515" data-name="Path 21515" d="M1623.665,537.563l6.935-1.423,6.28-1.281,16.753-3.435c3.468-.47,6.739,2.415,7.272,6.423s-1.884,7.676-5.354,8.155l-17.488,1.316-6.354.485-6.567.5Z" transform="translate(-1208.513 -392.861)" fill="#f74242"/>
        <path id="Path_21516" data-name="Path 21516" d="M1589.706,392.5l7.716-5.735-7.337.38Z" transform="translate(-1183.237 -285.949)" fill="#ea9d85"/>
        <path id="Path_21517" data-name="Path 21517" d="M1584.855,313.725l-2.09,7.751-.717,2.659c-.566,2.1-.829,5.378,1.3,6.749s5.568,1.276,8.45-.559,10.8-11.562,5.059-17.581-11.547-.059-12,.981" transform="translate(-1177.24 -229.259)" fill="#fdae97"/>
        <path id="Path_21518" data-name="Path 21518" d="M1601.274,321.125s-3.727-5.842-1.7-9.168,0-4.161-1.425-3.907a12.067,12.067,0,0,1-4.909-.218s3.021.072,4.3-.69c0,0-5.955.5-7.253-1.132l-.319,1.184s-2.145-5.152,1.081-6.35,4.567.159,4.567.159-1.027-2.107.449-2.506,2.829,2.652,2.829,2.652,2.066-2.615,4.2-.036a5.209,5.209,0,0,1,1.247,4.94,4.967,4.967,0,0,1,1.283,5.412c-1.211,3.305-4.09,6.427-4.361,9.661" transform="translate(-1182.917 -220.661)" fill="#322a28"/>
        <path id="Path_21519" data-name="Path 21519" d="M1625.842,365.969c-1.151,1.059-1.609,1.9-.794,2.823a2.775,2.775,0,0,0,4.272-3.465c-.815-.921-2.328-.417-3.478.641" transform="translate(-1209.235 -269.742)" fill="#fdae97"/>
        <path id="Path_21520" data-name="Path 21520" d="M1608.659,350.3c-.131.487-.488.812-.8.725s-.453-.552-.322-1.039.488-.812.8-.725.453.552.322,1.039" transform="translate(-1196.475 -258.208)" fill="#332b27"/>
        <path id="Path_21521" data-name="Path 21521" d="M1589.309,344.974c-.131.487.013.952.322,1.039s.666-.238.8-.725-.013-.952-.322-1.039-.666.238-.8.725" transform="translate(-1182.906 -254.503)" fill="#332b27"/>
        <path id="Path_21522" data-name="Path 21522" d="M1605.186,361.871c.026.489.821.842,1.774.788s1.7-.493,1.679-.982-.821-.842-1.774-.788-1.7.493-1.679.982" transform="translate(-1194.759 -266.813)" fill="#e89780"/>
        <path id="Path_21523" data-name="Path 21523" d="M1584.66,353.771l-.466,1.728c.692.285,1.332.248,1.533-.1.228-.42-.247-1.145-1.067-1.624" transform="translate(-1179.135 -261.554)" fill="#e89780"/>
        <path id="Path_21524" data-name="Path 21524" d="M1633.047,372.4a3.923,3.923,0,0,0-1.422-.4,1.828,1.828,0,0,1,2.028-.693" transform="translate(-1214.438 -274.462)" fill="none" stroke="#ea9d85" stroke-linecap="round" stroke-linejoin="round" stroke-width="1.4"/>
        <path id="Path_21525" data-name="Path 21525" d="M1595.285,374.127a2.75,2.75,0,0,1-3.275.442" transform="translate(-1184.952 -276.604)" fill="none" stroke="#332b27" stroke-miterlimit="10" stroke-width="0.896"/>
        <path id="Path_21526" data-name="Path 21526" d="M1596.517,352.023l-1.894,2.816a.765.765,0,0,0,.057.926l.349.4.357.41" transform="translate(-1186.801 -260.262)" fill="none" stroke="#332b27" stroke-miterlimit="10" stroke-width="0.896"/>
        <path id="Path_21527" data-name="Path 21527" d="M1609.943,346.492a2.649,2.649,0,0,0-2.031-1.32" transform="translate(-1196.788 -255.197)" fill="none" stroke="#332b27" stroke-miterlimit="10" stroke-width="0.896"/>
        <path id="Path_21528" data-name="Path 21528" d="M1589.014,340.189a1.818,1.818,0,0,1,2.01.285" transform="translate(-1182.723 -251.376)" fill="none" stroke="#332b27" stroke-miterlimit="10" stroke-width="0.896"/>
        <path id="Path_21529" data-name="Path 21529" d="M1586.891,416.7l6.226,2.716-3.272,4.052-3.725-5.988Z" transform="translate(-1180.568 -308.082)" fill="#fff"/>
        <path id="Path_21530" data-name="Path 21530" d="M1619.662,414.4l-6.178,3.317,2.946,3.881,3.783-6.652Z" transform="translate(-1200.936 -306.378)" fill="#fff"/>
        <path id="Path_21531" data-name="Path 21531" d="M1534.615,1017.229l.525-7.685h-14.68l-.573,7.685Z" transform="translate(-1131.27 -746.389)" fill="#fdae97"/>
        <path id="Path_21532" data-name="Path 21532" d="M1521.114,1013.026l14.939-3.482h-14.679Z" transform="translate(-1132.183 -746.389)" fill="#ea9d85"/>
        <path id="Path_21533" data-name="Path 21533" d="M1661.065,1017.194l-.563-7.7,15.036.012.255,7.685Z" transform="translate(-1235.932 -746.355)" fill="#fdae97"/>
        <path id="Path_21534" data-name="Path 21534" d="M1393.058,432.948l2.133.053a1.358,1.358,0,0,1,1.246,1.019l1.341,4.573a1.521,1.521,0,0,1-1.283,1.991l-2.317.082a1.358,1.358,0,0,1-1.339-1.087l-1.157-4.708a1.506,1.506,0,0,1,1.376-1.924" transform="translate(-1035.81 -320.092)" fill="#fdae97"/>
        <path id="Path_21535" data-name="Path 21535" d="M1660.816,1013.79l14.722-4.281-15.036-.012Z" transform="translate(-1235.932 -746.355)" fill="#ea9d85"/>
        <path id="Path_21536" data-name="Path 21536" d="M1645.783,325.911a3.178,3.178,0,0,1,3.492.545s-2.993-.872-3.492.291,0-.835,0-.835" transform="translate(-1224.811 -240.738)" fill="#322a28"/>
        <path id="Path_21537" data-name="Path 21537" d="M1599.52,422.441l-7.458,12.23-7.359-11.44" transform="translate(-1179.514 -312.324)" fill="none" stroke="#fff" stroke-linecap="round" stroke-linejoin="round" stroke-width="0.729"/>
        <line id="Line_514" data-name="Line 514" y1="0.529" x2="2.843" transform="translate(434.289 140.2)" fill="none" stroke="#322a28" stroke-linecap="round" stroke-linejoin="round" stroke-width="0.729"/>
        <line id="Line_515" data-name="Line 515" x1="1.737" y1="2.661" transform="translate(430.853 135.464)" fill="none" stroke="#322a28" stroke-linecap="round" stroke-linejoin="round" stroke-width="0.729"/>
        <path id="Path_21538" data-name="Path 21538" d="M1491.595,1044.384h21.677l.037-.9.266-5.956h-14.75a7.676,7.676,0,0,0-4.807,2.233,7.548,7.548,0,0,0-2.236,3.723,5.524,5.524,0,0,0-.186.9" transform="translate(-1110.212 -767.08)" fill="#322a28"/>
        <path id="Path_21539" data-name="Path 21539" d="M1491.595,1061.276h21.677l.037-.9h-21.527a5.532,5.532,0,0,0-.186.9" transform="translate(-1110.212 -783.972)" fill="#fff1f0"/>
        <path id="Path_21540" data-name="Path 21540" d="M1518.134,1035.6s1.874-3.353,3.135-2.027-3.135,2.027-3.135,2.027" transform="translate(-1129.966 -763.927)" fill="none" stroke="#fff1f0" stroke-linecap="round" stroke-linejoin="round" stroke-width="1.109"/>
        <path id="Path_21541" data-name="Path 21541" d="M1509,1036.269l-.66-.667s-1.874-3.353-3.135-2.027,3.135,2.027,3.135,2.027" transform="translate(-1120.176 -763.927)" fill="none" stroke="#fff1f0" stroke-linecap="round" stroke-linejoin="round" stroke-width="1.109"/>
        <line id="Line_516" data-name="Line 516" y1="0.668" x2="0.503" transform="translate(387.665 271.674)" fill="none" stroke="#fff1f0" stroke-linecap="round" stroke-linejoin="round" stroke-width="1.109"/>
        <path id="Path_21542" data-name="Path 21542" d="M1684.173,1044.384H1662.5l-.037-.9-.266-5.956h14.75a7.675,7.675,0,0,1,4.807,2.233,7.549,7.549,0,0,1,2.236,3.723,5.511,5.511,0,0,1,.186.9" transform="translate(-1237.19 -767.08)" fill="#322a28"/>
        <path id="Path_21543" data-name="Path 21543" d="M1684.948,1061.276h-21.677l-.037-.9h21.527a5.506,5.506,0,0,1,.186.9" transform="translate(-1237.965 -783.972)" fill="#fff1f0"/>
        <path id="Path_21544" data-name="Path 21544" d="M1711.827,1036.38s-1.874-3.352-3.135-2.027,3.135,2.027,3.135,2.027" transform="translate(-1271.63 -764.503)" fill="none" stroke="#fff1f0" stroke-linecap="round" stroke-linejoin="round" stroke-width="1.109"/>
        <path id="Path_21545" data-name="Path 21545" d="M1719.037,1037.048l.66-.667s1.874-3.352,3.135-2.027-3.135,2.027-3.135,2.027" transform="translate(-1279.5 -764.503)" fill="none" stroke="#fff1f0" stroke-linecap="round" stroke-linejoin="round" stroke-width="1.109"/>
        <line id="Line_517" data-name="Line 517" x1="0.503" y1="0.668" transform="translate(440.197 271.877)" fill="none" stroke="#fff1f0" stroke-linecap="round" stroke-linejoin="round" stroke-width="1.109"/>
        <path id="Path_21546" data-name="Path 21546" d="M1594.539,698.331l-.7-5.888-3.545-2.493-2.88-11.961" transform="translate(-1181.528 -501.26)" fill="none" stroke="#fff" stroke-miterlimit="10" stroke-width="1.606"/>
        <line id="Line_518" data-name="Line 518" x2="13.942" transform="translate(388.617 257.129)" fill="none" stroke="#fff" stroke-miterlimit="10" stroke-width="1.606"/>
        <line id="Line_519" data-name="Line 519" x2="13.942" transform="translate(425.919 257.129)" fill="none" stroke="#fff" stroke-miterlimit="10" stroke-width="1.606"/>
        <path id="Path_21547" data-name="Path 21547" d="M1976.819,648.135a12.969,12.969,0,0,0-11.475-5.669c-.143.008-.29.02-.433.031a13.255,13.255,0,0,0-11.865,12.62,13.53,13.53,0,0,0,1.611,7.09,13.371,13.371,0,0,0,1.972,2.741v0a13.4,13.4,0,0,0,1.984,1.738,7.611,7.611,0,0,1,3.083,5.33l-.6.009a.632.632,0,0,0-.446.2c-.02.022-.038.046-.059.071a.657.657,0,0,0-.12.389.643.643,0,0,0,.644.639.633.633,0,0,0-.446.2c-.012.012-.02.025-.032.037a.656.656,0,0,0-.146.423.643.643,0,0,0,.643.64.622.622,0,0,0-.445.2c-.018.019-.035.04-.053.062a.674.674,0,0,0-.126.4.642.642,0,0,0,.643.637.621.621,0,0,0-.445.2.141.141,0,0,0-.021.024.648.648,0,0,0,.485,1.072l.655-.01a4.67,4.67,0,0,0,.046.472,4.386,4.386,0,0,0,.533,1.495q.074.128.156.25c.027.04.056.079.085.119s.077.106.117.157.059.074.09.111c.049.058.1.114.151.169.024.026.047.052.072.077q.113.114.233.219c.028.025.057.047.086.071.06.049.12.1.182.143l.1.07c.074.051.149.1.226.148l.056.035c.095.056.193.107.292.156l.093.043q.112.051.226.1l.1.039c.1.034.193.066.293.094l.034.01c.11.029.222.054.335.074l.1.016q.128.02.259.033l.1.009c.118.008.237.013.357.011l.714-.011a4.217,4.217,0,0,0,3-1.323,4.38,4.38,0,0,0,1.172-2.45c.01-.082.017-.164.022-.247s.008-.148.01-.223v0l.595-.009a.632.632,0,0,0,.446-.2.646.646,0,0,0,.182-.46.634.634,0,0,0-.174-.43.614.614,0,0,0-.473-.209.633.633,0,0,0,.446-.2.651.651,0,0,0,.182-.46.66.66,0,0,0-.14-.394.634.634,0,0,0-.506-.245.625.625,0,0,0,.446-.2.648.648,0,0,0,.02-.878.632.632,0,0,0-.485-.218.623.623,0,0,0,.446-.2.649.649,0,0,0,.048-.845.631.631,0,0,0-.512-.251l-.6.009a7.646,7.646,0,0,1,2.926-5.425,13.5,13.5,0,0,0,2.9-18.318" transform="translate(-1453.665 -474.979)" fill="#e5f0f8"/>
        <path id="Path_21548" data-name="Path 21548" d="M66.874,160.638a12.579,12.579,0,0,1-11.236,12.4,55.19,55.19,0,0,0,6.526,17.032,12.25,12.25,0,0,1,16.546,1.252,12.721,12.721,0,0,1,2.632,4.154,12.969,12.969,0,0,1-2,12.734,54.16,54.16,0,0,0,10.418,5.382c1.638.624,3.309,1.175,4.989,1.633.329.106.677.187,1,.271a12.545,12.545,0,0,1,12.567-11.02,12.226,12.226,0,0,1,8.286,3.448,12.761,12.761,0,0,1,3.877,8.007,52.658,52.658,0,0,0,16.663-6.646,12.922,12.922,0,0,1,1.254-16.85,12.289,12.289,0,0,1,16.565-.641,55.258,55.258,0,0,0,7.122-16.747,12.717,12.717,0,0,1,.474-25.2,55.065,55.065,0,0,0-6.523-17.009,12.212,12.212,0,0,1-15.073.036,9.192,9.192,0,0,1-1.451-1.292,12.837,12.837,0,0,1-.629-16.888,53.8,53.8,0,0,0-9.8-5.162c-1.638-.625-3.291-1.2-4.974-1.681-.561-.16-1.122-.32-1.679-.458a12.445,12.445,0,0,1-15.889,10.484,12.634,12.634,0,0,1-8.819-10.923A52.662,52.662,0,0,0,81.054,113.6a12.922,12.922,0,0,1-1.254,16.85,12.29,12.29,0,0,1-16.566.641,55.837,55.837,0,0,0-7.144,16.751,12.581,12.581,0,0,1,10.784,12.793m23.858-18.6a26.087,26.087,0,0,1,24.478-6.812,23.686,23.686,0,0,1,4.963,1.751,26.076,26.076,0,0,1,7.976,5.775,26.823,26.823,0,0,1,6.177,10.6,27.305,27.305,0,0,1-6.885,27.5,24.37,24.37,0,0,1-2.824,2.391,26.091,26.091,0,0,1-34.546-3.09,27.963,27.963,0,0,1-2.682-3.326,27.341,27.341,0,0,1,3.343-34.791" transform="translate(-41.412 -79.076)" fill="#0775ef"/>
        <path id="Path_21549" data-name="Path 21549" d="M316.842,93.157l6.121-5.459-1.6,14.3Z" transform="translate(-235.829 -64.838)" fill="#0775ef"/>
        <path id="Path_21550" data-name="Path 21550" d="M161.16,111.512l-6.121,5.459,9.05,4.321,2.7-8.8Z" transform="translate(-115.398 -82.443)" fill="#0775ef"/>
        <path id="Path_21551" data-name="Path 21551" d="M61.759,339.521l-6.121,5.459,4.854,3.981L66,344.368Z" transform="translate(-41.412 -251.018)" fill="#0775ef"/>
        <path id="Path_21552" data-name="Path 21552" d="M91.468,178.612l-6.121,5.459,2.292,6.213,1.59-6.75Z" transform="translate(-63.525 -132.053)" fill="#0775ef"/>
        <path id="Path_21553" data-name="Path 21553" d="M207.948,492.425l-6.121,5.459-3.67-4.44,3.551-4.538Z" transform="translate(-147.491 -361.464)" fill="#0775ef"/>
        <path id="Path_21554" data-name="Path 21554" d="M461.776,237.908l-6.121,5.459-6.233-5.223,3.339-4.7Z" transform="translate(-334.51 -172.592)" fill="#0775ef"/>
        <path id="Path_21555" data-name="Path 21555" d="M354.4,474.568l-6.121,5.459-8.972-1.525,6.312-5.349Z" transform="translate(-252.551 -349.817)" fill="#0775ef"/>
        <path id="Path_21556" data-name="Path 21556" d="M445.848,397.427l-6.121,5.459-1.5-10.413,5.485,1.135Z" transform="translate(-326.179 -290.167)" fill="#0775ef"/>
        <path id="Path_21557" data-name="Path 21557" d="M90.812,139.7a12.58,12.58,0,0,1-11.236,12.4A55.186,55.186,0,0,0,86.1,169.127a12.25,12.25,0,0,1,16.546,1.252,12.722,12.722,0,0,1,2.632,4.154,12.969,12.969,0,0,1-2,12.734,54.129,54.129,0,0,0,10.418,5.382c1.638.624,3.309,1.175,4.989,1.634.329.106.677.187,1,.271a12.546,12.546,0,0,1,12.567-11.02,12.228,12.228,0,0,1,8.286,3.448,12.761,12.761,0,0,1,3.877,8.007,52.657,52.657,0,0,0,16.663-6.646,12.922,12.922,0,0,1,1.254-16.85,12.289,12.289,0,0,1,16.566-.641,55.252,55.252,0,0,0,7.122-16.747,12.716,12.716,0,0,1,.474-25.2,55.055,55.055,0,0,0-6.523-17.009,12.212,12.212,0,0,1-15.073.036,9.217,9.217,0,0,1-1.451-1.292,12.837,12.837,0,0,1-.629-16.888,53.8,53.8,0,0,0-9.8-5.163c-1.638-.624-3.291-1.2-4.974-1.681-.561-.161-1.122-.32-1.679-.459a12.444,12.444,0,0,1-15.889,10.484,12.634,12.634,0,0,1-8.819-10.923,52.655,52.655,0,0,0-16.663,6.646,12.922,12.922,0,0,1-1.254,16.85,12.29,12.29,0,0,1-16.566.642A55.844,55.844,0,0,0,80.028,126.9,12.581,12.581,0,0,1,90.812,139.7m23.858-18.6a26.089,26.089,0,0,1,24.478-6.812,23.686,23.686,0,0,1,4.963,1.751,26.085,26.085,0,0,1,7.976,5.775,26.822,26.822,0,0,1,6.177,10.6,27.305,27.305,0,0,1-6.885,27.5,24.367,24.367,0,0,1-2.824,2.39,26.092,26.092,0,0,1-34.546-3.09,27.971,27.971,0,0,1-2.682-3.326A27.341,27.341,0,0,1,114.67,121.1" transform="translate(-59.229 -63.593)" fill="#088cfc"/>
        <path id="Path_21558" data-name="Path 21558" d="M523.611,49.463a6.972,6.972,0,0,1-4.539,8.024,29.973,29.973,0,0,0,5.518,8.308,6.727,6.727,0,0,1,9-1.375,6.9,6.9,0,0,1,1.9,1.9,7.124,7.124,0,0,1,.442,7.062,29.462,29.462,0,0,0,6.215,1.593c.951.131,1.911.22,2.864.257.189.016.384.016.569.022A6.957,6.957,0,0,1,551,67.8a6.668,6.668,0,0,1,4.844.821,6.925,6.925,0,0,1,3.027,3.806A29.209,29.209,0,0,0,567,66.813a7.085,7.085,0,0,1-1.333-9.172,6.765,6.765,0,0,1,8.789-2.39,30.525,30.525,0,0,0,1.82-9.842A6.83,6.83,0,0,1,569,39.89a6.973,6.973,0,0,1,4.539-8.024,29.9,29.9,0,0,0-5.513-8.3,6.718,6.718,0,0,1-8.062,1.882,4.972,4.972,0,0,1-.93-.512,7.022,7.022,0,0,1-2.345-8.96,29.275,29.275,0,0,0-5.86-1.551c-.951-.132-1.9-.236-2.862-.285-.319-.016-.638-.033-.953-.038a6.816,6.816,0,0,1-13.275,2.818,29.2,29.2,0,0,0-8.127,5.616,7.085,7.085,0,0,1,1.332,9.172,6.765,6.765,0,0,1-8.789,2.39,30.859,30.859,0,0,0-1.831,9.847,6.83,6.83,0,0,1,7.292,5.514m10.556-12.9a14.436,14.436,0,0,1,12.29-6.67,12.907,12.907,0,0,1,2.864.324,14.153,14.153,0,0,1,4.955,2.1,14.546,14.546,0,0,1,4.566,4.908,15.029,15.029,0,0,1-.414,15.57,13.5,13.5,0,0,1-1.227,1.628,14.281,14.281,0,0,1-10.671,5.042,14.389,14.389,0,0,1-8.184-2.427,14.878,14.878,0,0,1-4.178-20.48" transform="translate(-384.302 -10.427)" fill="#0775ef"/>
        <path id="Path_21559" data-name="Path 21559" d="M636.347,3.674,638.974,0l.847,7.849Z" transform="translate(-473.641 0.004)" fill="#0775ef"/>
        <path id="Path_21560" data-name="Path 21560" d="M555.271,31.87l-2.626,3.678L558,36.742l.4-5.042Z" transform="translate(-411.34 -23.436)" fill="#0775ef"/>
        <path id="Path_21561" data-name="Path 21561" d="M529.714,166.423l-2.627,3.678,3.071,1.531,2.4-3.139Z" transform="translate(-392.317 -123.041)" fill="#0775ef"/>
        <path id="Path_21562" data-name="Path 21562" d="M526.108,76.71l-2.627,3.678,1.966,3.042.048-3.809Z" transform="translate(-389.634 -56.713)" fill="#0775ef"/>
        <path id="Path_21563" data-name="Path 21563" d="M626.155,231.422l-2.626,3.678-2.492-1.922,1.361-2.868Z" transform="translate(-462.245 -170.275)" fill="#0775ef"/>
        <path id="Path_21564" data-name="Path 21564" d="M731.2,64.515l-2.626,3.678-3.957-2.025,1.228-2.928Z" transform="translate(-539.338 -46.755)" fill="#0775ef"/>
        <path id="Path_21565" data-name="Path 21565" d="M702.652,202.2l-2.626,3.678-4.983.293,2.742-3.642Z" transform="translate(-517.329 -149.494)" fill="#0775ef"/>
        <path id="Path_21566" data-name="Path 21566" d="M740.38,152.795l-2.626,3.678-2.04-5.388,3.07-.071Z" transform="translate(-547.601 -111.649)" fill="#0775ef"/>
        <path id="Path_21567" data-name="Path 21567" d="M533.883,35.353a6.973,6.973,0,0,1-4.539,8.024,29.975,29.975,0,0,0,5.518,8.308,6.728,6.728,0,0,1,9-1.374,6.89,6.89,0,0,1,1.9,1.9,7.124,7.124,0,0,1,.442,7.062,29.479,29.479,0,0,0,6.215,1.593c.951.132,1.911.22,2.864.258.189.016.384.016.569.021a6.957,6.957,0,0,1,5.415-7.45,6.665,6.665,0,0,1,4.844.821,6.923,6.923,0,0,1,3.027,3.806,29.2,29.2,0,0,0,8.127-5.616,7.085,7.085,0,0,1-1.333-9.172,6.765,6.765,0,0,1,8.789-2.39,30.528,30.528,0,0,0,1.82-9.842,6.83,6.83,0,0,1-7.281-5.518,6.973,6.973,0,0,1,4.539-8.024,29.9,29.9,0,0,0-5.513-8.3,6.717,6.717,0,0,1-8.062,1.882,4.969,4.969,0,0,1-.93-.512,7.022,7.022,0,0,1-2.345-8.96A29.3,29.3,0,0,0,561.1.319c-.951-.132-1.9-.236-2.862-.285C557.915.017,557.6,0,557.281,0a6.916,6.916,0,0,1-5.409,7.434,6.875,6.875,0,0,1-1.848.14,6.855,6.855,0,0,1-6.018-4.756,29.2,29.2,0,0,0-8.127,5.616,7.085,7.085,0,0,1,1.333,9.172,6.765,6.765,0,0,1-8.789,2.39,30.859,30.859,0,0,0-1.831,9.847,6.831,6.831,0,0,1,7.292,5.514m10.556-12.9a14.435,14.435,0,0,1,12.29-6.67,12.922,12.922,0,0,1,2.864.324,14.149,14.149,0,0,1,4.955,2.1,14.545,14.545,0,0,1,4.566,4.908,15.028,15.028,0,0,1-.414,15.57,13.521,13.521,0,0,1-1.227,1.628A14.281,14.281,0,0,1,556.8,45.358a14.394,14.394,0,0,1-8.184-2.427,15.162,15.162,0,0,1-1.831-1.448,15,15,0,0,1-2.347-19.032" transform="translate(-391.948 0.004)" fill="#088cfc"/>
        <path id="Path_21568" data-name="Path 21568" d="M797.93,163.384a8.508,8.508,0,0,1-7.311,8.625,37.22,37.22,0,0,0,4.779,11.345,8.271,8.271,0,0,1,11.195.467,8.577,8.577,0,0,1,1.868,2.743,8.762,8.762,0,0,1-1.072,8.64,36.512,36.512,0,0,0,7.149,3.394c1.119.384,2.259.717,3.4.988.225.064.461.111.683.16a8.485,8.485,0,0,1,8.239-7.725,8.248,8.248,0,0,1,5.668,2.138,8.6,8.6,0,0,1,2.792,5.315,35.6,35.6,0,0,0,11.1-4.866,8.727,8.727,0,0,1,.475-11.4,8.3,8.3,0,0,1,11.166-.811,37.357,37.357,0,0,0,4.438-11.465,8.587,8.587,0,0,1-.234-17.015,37.126,37.126,0,0,0-4.777-11.33,8.246,8.246,0,0,1-10.172.369,6.184,6.184,0,0,1-1.008-.839,8.667,8.667,0,0,1-.8-11.383,36.271,36.271,0,0,0-6.729-3.26c-1.119-.384-2.248-.735-3.394-1.021-.382-.1-.764-.191-1.143-.271a8.382,8.382,0,0,1-16.685.268,35.61,35.61,0,0,0-11.1,4.866,8.728,8.728,0,0,1-.475,11.4,8.3,8.3,0,0,1-11.166.811A37.758,37.758,0,0,0,790.371,155a8.482,8.482,0,0,1,7.559,8.387m15.692-13.1a17.634,17.634,0,0,1,16.37-5.157,15.988,15.988,0,0,1,3.388,1.069,17.576,17.576,0,0,1,5.51,3.715,18.08,18.08,0,0,1,4.4,7.011,18.451,18.451,0,0,1-4.042,18.719,16.436,16.436,0,0,1-1.853,1.678,17.609,17.609,0,0,1-23.383-1.3,18.821,18.821,0,0,1-1.883-2.183,18.467,18.467,0,0,1,1.491-23.556" transform="translate(-588.283 -93.29)" fill="#0775ef"/>
        <path id="Path_21569" data-name="Path 21569" d="M961.982,115.336l4.011-3.824-.762,9.687Z" transform="translate(-716.015 -82.444)" fill="#0775ef"/>
        <path id="Path_21570" data-name="Path 21570" d="M857.328,131.211l-4.011,3.824,6.2,2.709,1.628-6Z" transform="translate(-635.134 -97.008)" fill="#0775ef"/>
        <path id="Path_21571" data-name="Path 21571" d="M795.354,287.321l-4.011,3.824,3.364,2.576,3.619-3.225Z" transform="translate(-589.006 -212.425)" fill="#0775ef"/>
        <path id="Path_21572" data-name="Path 21572" d="M811.8,178.059l-4.011,3.824,1.684,4.141.925-4.592Z" transform="translate(-601.245 -131.644)" fill="#0775ef"/>
        <path id="Path_21573" data-name="Path 21573" d="M897.383,387.4l-4.011,3.824-2.575-2.912,2.3-3.144Z" transform="translate(-663.031 -284.768)" fill="#0775ef"/>
        <path id="Path_21574" data-name="Path 21574" d="M1062.994,209.952l-4.011,3.824-4.322-3.383,2.15-3.249Z" transform="translate(-784.997 -153.148)" fill="#0775ef"/>
        <path id="Path_21575" data-name="Path 21575" d="M995.877,371.886l-4.011,3.824-6.089-.824,4.142-3.754Z" transform="translate(-733.726 -274.39)" fill="#0775ef"/>
        <path id="Path_21576" data-name="Path 21576" d="M1055.52,318.187l-4.011,3.824-1.24-6.994,3.727.64Z" transform="translate(-781.728 -232.902)" fill="#0775ef"/>
        <path id="Path_21577" data-name="Path 21577" d="M813.616,148.714a8.507,8.507,0,0,1-7.311,8.625,37.226,37.226,0,0,0,4.779,11.345,8.271,8.271,0,0,1,11.195.467,8.573,8.573,0,0,1,1.867,2.743,8.761,8.761,0,0,1-1.072,8.64,36.5,36.5,0,0,0,7.149,3.394c1.119.384,2.259.717,3.4.988.225.064.461.111.683.16a8.485,8.485,0,0,1,8.239-7.724,8.246,8.246,0,0,1,5.668,2.137,8.6,8.6,0,0,1,2.792,5.315,35.6,35.6,0,0,0,11.1-4.866,8.727,8.727,0,0,1,.475-11.4,8.3,8.3,0,0,1,11.166-.811,37.356,37.356,0,0,0,4.438-11.465,8.587,8.587,0,0,1-.234-17.015,37.143,37.143,0,0,0-4.777-11.33,8.246,8.246,0,0,1-10.172.369,6.193,6.193,0,0,1-1.008-.839,8.667,8.667,0,0,1-.8-11.383,36.269,36.269,0,0,0-6.729-3.26c-1.119-.384-2.247-.735-3.393-1.021-.382-.1-.765-.191-1.144-.271a8.382,8.382,0,0,1-16.685.268,35.609,35.609,0,0,0-11.1,4.866,8.728,8.728,0,0,1-.476,11.4,8.3,8.3,0,0,1-11.166.811,37.76,37.76,0,0,0-4.453,11.468,8.482,8.482,0,0,1,7.559,8.387m15.693-13.1a17.633,17.633,0,0,1,16.37-5.157,15.985,15.985,0,0,1,3.388,1.069,17.574,17.574,0,0,1,5.51,3.715,18.08,18.08,0,0,1,4.4,7.011,18.453,18.453,0,0,1-4.042,18.72,16.509,16.509,0,0,1-1.854,1.678,17.609,17.609,0,0,1-23.383-1.3,18.826,18.826,0,0,1-1.883-2.183,18.466,18.466,0,0,1,1.491-23.556" transform="translate(-599.958 -82.444)" fill="#088cfc"/>
        <path id="Path_21578" data-name="Path 21578" d="M1063.362,1080.127H992.138a3.816,3.816,0,0,1-3.779-3.852v-41.726a3.816,3.816,0,0,1,3.779-3.852h71.224a3.816,3.816,0,0,1,3.779,3.852v41.726a3.816,3.816,0,0,1-3.779,3.852" transform="translate(-735.647 -762.028)" fill="#088cfc"/>
        <path id="Path_21579" data-name="Path 21579" d="M1047.439,1083.7a6.974,6.974,0,0,0-2.491-1.884,6.618,6.618,0,0,0-2.425-.471,7.956,7.956,0,0,0-3.283.656,7.51,7.51,0,0,0-2.524,1.817,8.26,8.26,0,0,0-1.633,2.708,9.434,9.434,0,0,0-.578,3.33,10.411,10.411,0,0,0,.578,3.532,8.313,8.313,0,0,0,1.633,2.792,7.6,7.6,0,0,0,2.524,1.85,7.788,7.788,0,0,0,3.283.673,5.941,5.941,0,0,0,2.755-.69,7.562,7.562,0,0,0,2.491-2.2l3.431,2.489a9.382,9.382,0,0,1-3.86,3.23,11.827,11.827,0,0,1-4.85,1.008,13.429,13.429,0,0,1-4.966-.891,11.291,11.291,0,0,1-3.893-2.523,11.6,11.6,0,0,1-2.557-3.919,13.427,13.427,0,0,1-.925-5.079,14.016,14.016,0,0,1,.925-5.2,11.671,11.671,0,0,1,2.557-3.986,11.191,11.191,0,0,1,3.893-2.54,13.429,13.429,0,0,1,4.966-.891,11.188,11.188,0,0,1,4.4.858,10.285,10.285,0,0,1,3.778,2.909Z" transform="translate(-766.753 -796.639)" fill="#fff"/>
        <path id="Path_21580" data-name="Path 21580" d="M1130.285,1083.228a3.849,3.849,0,0,0-1.765-1.43,6.074,6.074,0,0,0-2.326-.454,5.781,5.781,0,0,0-1.4.169,3.772,3.772,0,0,0-1.221.538,2.721,2.721,0,0,0-1.2,2.354,2.2,2.2,0,0,0,.825,1.85,8.041,8.041,0,0,0,2.046,1.11q1.219.471,2.672.908a10.768,10.768,0,0,1,2.672,1.21,6.691,6.691,0,0,1,2.046,2.052,6.189,6.189,0,0,1,.825,3.4,7.593,7.593,0,0,1-.693,3.348,6.812,6.812,0,0,1-1.864,2.371,8.015,8.015,0,0,1-2.723,1.413,11.192,11.192,0,0,1-3.266.47,12.059,12.059,0,0,1-4.191-.74,8.067,8.067,0,0,1-3.465-2.489l3.135-3.094a5.277,5.277,0,0,0,2,1.833,5.519,5.519,0,0,0,2.623.656,5.423,5.423,0,0,0,1.452-.2,4.454,4.454,0,0,0,1.32-.606,3.133,3.133,0,0,0,.957-1.026,2.793,2.793,0,0,0,.362-1.429,2.513,2.513,0,0,0-.825-2.019,7.274,7.274,0,0,0-2.046-1.194q-1.22-.487-2.673-.925a11.147,11.147,0,0,1-2.672-1.194,6.554,6.554,0,0,1-2.045-2.019,6.1,6.1,0,0,1-.825-3.38,6.516,6.516,0,0,1,.742-3.2,6.889,6.889,0,0,1,1.947-2.237,8.432,8.432,0,0,1,2.755-1.328,11.632,11.632,0,0,1,3.168-.437,11.358,11.358,0,0,1,3.579.571,8.275,8.275,0,0,1,3.118,1.884Z" transform="translate(-831.584 -796.639)" fill="#fff"/>
        <path id="Path_21581" data-name="Path 21581" d="M1204.353,1083.228a3.849,3.849,0,0,0-1.765-1.43,6.073,6.073,0,0,0-2.326-.454,5.782,5.782,0,0,0-1.4.169,3.771,3.771,0,0,0-1.221.538,2.721,2.721,0,0,0-1.2,2.354,2.2,2.2,0,0,0,.826,1.85,8.037,8.037,0,0,0,2.046,1.11q1.219.471,2.672.908a10.772,10.772,0,0,1,2.672,1.21,6.692,6.692,0,0,1,2.046,2.052,6.187,6.187,0,0,1,.825,3.4,7.591,7.591,0,0,1-.693,3.348,6.808,6.808,0,0,1-1.864,2.371,8.011,8.011,0,0,1-2.722,1.413,11.194,11.194,0,0,1-3.266.47,12.056,12.056,0,0,1-4.19-.74,8.068,8.068,0,0,1-3.465-2.489l3.135-3.094a5.278,5.278,0,0,0,2,1.833,5.523,5.523,0,0,0,2.624.656,5.421,5.421,0,0,0,1.451-.2,4.456,4.456,0,0,0,1.32-.606,3.132,3.132,0,0,0,.957-1.026,2.792,2.792,0,0,0,.362-1.429,2.513,2.513,0,0,0-.825-2.019,7.273,7.273,0,0,0-2.046-1.194q-1.22-.487-2.673-.925a11.149,11.149,0,0,1-2.672-1.194,6.552,6.552,0,0,1-2.045-2.019,6.1,6.1,0,0,1-.825-3.38,6.517,6.517,0,0,1,.742-3.2,6.884,6.884,0,0,1,1.947-2.237,8.429,8.429,0,0,1,2.755-1.328,11.637,11.637,0,0,1,3.168-.437,11.358,11.358,0,0,1,3.579.571,8.279,8.279,0,0,1,3.118,1.884Z" transform="translate(-886.714 -796.639)" fill="#fff"/>
        <path id="Path_21582" data-name="Path 21582" d="M1336.489,54.564h-59.7a3.555,3.555,0,0,1-3.521-3.589V7.5a3.555,3.555,0,0,1,3.521-3.589h59.7a3.555,3.555,0,0,1,3.52,3.589V50.975a3.555,3.555,0,0,1-3.52,3.589" transform="translate(-947.712 -2.888)" fill="#f9e181"/>
        <path id="Path_21583" data-name="Path 21583" d="M1329.978,60.474a12.073,12.073,0,0,1-.636,3.886,9.635,9.635,0,0,1-1.885,3.288,8.966,8.966,0,0,1-3.13,2.253,10.694,10.694,0,0,1-4.379.84,10.573,10.573,0,0,1-6.47-1.871,9.284,9.284,0,0,1-3.321-5.952l5.555-1.343a4.654,4.654,0,0,0,1.345,2.687,3.64,3.64,0,0,0,2.613,1.008,3.542,3.542,0,0,0,3.459-1.75,10.5,10.5,0,0,0,.916-4.823V35.9h5.934Z" transform="translate(-975.166 -26.542)" fill="#fff"/>
        <path id="Path_21584" data-name="Path 21584" d="M1425.6,40.748a5.462,5.462,0,0,0-2.521-2.039,8.609,8.609,0,0,0-3.318-.648,8.242,8.242,0,0,0-2,.238,5.393,5.393,0,0,0-1.743.769,3.865,3.865,0,0,0-1.716,3.359,3.138,3.138,0,0,0,1.176,2.64,11.266,11.266,0,0,0,2.919,1.582q1.741.674,3.812,1.3a15.508,15.508,0,0,1,3.812,1.726,9.579,9.579,0,0,1,2.919,2.929,8.823,8.823,0,0,1,1.176,4.847,10.836,10.836,0,0,1-.989,4.776,9.673,9.673,0,0,1-2.659,3.382,11.411,11.411,0,0,1-3.884,2.015,15.9,15.9,0,0,1-4.658.672,17.215,17.215,0,0,1-5.98-1.054,11.493,11.493,0,0,1-4.942-3.55l4.471-4.417a7.559,7.559,0,0,0,2.85,2.617,7.905,7.905,0,0,0,3.743.933,7.7,7.7,0,0,0,2.069-.285,6.416,6.416,0,0,0,1.885-.867,4.48,4.48,0,0,0,1.364-1.461,3.991,3.991,0,0,0,.517-2.043,3.581,3.581,0,0,0-1.176-2.878,10.389,10.389,0,0,0-2.919-1.7q-1.741-.7-3.812-1.32a15.815,15.815,0,0,1-3.812-1.7,9.29,9.29,0,0,1-2.919-2.882,8.684,8.684,0,0,1-1.176-4.819,9.318,9.318,0,0,1,1.057-4.562,9.824,9.824,0,0,1,2.778-3.191,11.988,11.988,0,0,1,3.93-1.894,16.5,16.5,0,0,1,4.521-.625,16.222,16.222,0,0,1,5.107.816,11.748,11.748,0,0,1,4.448,2.687Z" transform="translate(-1047.251 -24.093)" fill="#fff"/>
        <path id="Path_21585" data-name="Path 21585" d="M1881.47,473.1H1816.7a3.693,3.693,0,0,1-3.657-3.728v-43.15a3.693,3.693,0,0,1,3.657-3.728h64.766a3.693,3.693,0,0,1,3.657,3.728v43.15a3.693,3.693,0,0,1-3.657,3.728" transform="translate(-1349.473 -312.361)" fill="#088cfc"/>
        <path id="Path_21586" data-name="Path 21586" d="M1828.123,493.734v-3.685l20.866-11.513v5.628l-13.938,7.727,13.938,7.727v5.628Z" transform="translate(-1360.694 -353.797)" fill="#fff"/>
        <path id="Path_21587" data-name="Path 21587" d="M1924.6,481.694l-3.422-1.535,12.865-39.707,3.422,1.638Z" transform="translate(-1429.958 -325.64)" fill="#fff"/>
        <path id="Path_21588" data-name="Path 21588" d="M2019.135,490.049v3.685l-20.866,11.513v-5.628l13.938-7.727-13.938-7.727v-5.628Z" transform="translate(-1487.335 -353.797)" fill="#fff"/>
        <path id="Path_21589" data-name="Path 21589" d="M98.684,644.129H4.334A4.377,4.377,0,0,1,0,639.711V598.8a4.377,4.377,0,0,1,4.334-4.419h94.35a4.377,4.377,0,0,1,4.334,4.419v40.908a4.377,4.377,0,0,1-4.334,4.419" transform="translate(0 -439.448)" fill="#f9e181"/>
        <path id="Path_21590" data-name="Path 21590" d="M33.364,645.2h4.059v9.263H48.086V645.2h4.061v23.255H48.086V658.2H37.423v10.248H33.364Z" transform="translate(-24.834 -477.015)" fill="#fff"/>
        <path id="Path_21591" data-name="Path 21591" d="M124.648,648.942h-6.993V645.2H135.7v3.745h-6.99v19.51h-4.059Z" transform="translate(-87.572 -477.016)" fill="#fff"/>
        <path id="Path_21592" data-name="Path 21592" d="M199.444,645.2h6.185l6.088,16.292,6.154-16.292h6.122v23.255h-3.865V649.138h-.066l-6.927,19.313H210.3l-6.927-19.313h-.065v19.313h-3.865Z" transform="translate(-148.449 -477.015)" fill="#fff"/>
        <path id="Path_21593" data-name="Path 21593" d="M315.739,645.2H319.8v19.51h9.7v3.745H315.739Z" transform="translate(-235.008 -477.015)" fill="#fff"/>
      </g>
    </g>
  </g>
</svg>
